<?xml version="1.0" encoding="utf-8"?>
<!-- Generator: Adobe Illustrator 27.5.0, SVG Export Plug-In . SVG Version: 6.00 Build 0)  -->
<svg version="1.1" xmlns="http://www.w3.org/2000/svg" xmlns:xlink="http://www.w3.org/1999/xlink" x="0px" y="0px"
	 viewBox="0 0 1761 2557" style="enable-background:new 0 0 1761 2557;" xml:space="preserve">
<g id="Capa_3">
</g>
<g id="Capa_4">
	<g>
		<path style="fill:#EC7A58;" d="M1291.206,2174.271c-20.812-293.877-17.762-544.626-38.574-838.503
			c-1.393-19.758-3.69-39.402-6.698-58.934c-2.341-15.182-5.112-30.302-8.227-45.372c9.272-8.613,17.53-16.666,24.746-23.959
			c4.429-3.441,8.511-7.558,12.114-12.372c0.212-0.284,0.423-0.571,0.631-0.86c2.379-2.704,4.197-5.691,5.47-8.826
			c17.077-32.434,17.082-89.406-27.779-188.98c-2.446-5.418-4.929-10.8-7.528-16.107c-22.052-45.76-48.284-87.46-75.04-123.097
			c-25.214-33.568-50.917-61.756-74.138-82.905c-2.757-2.516-5.62-4.812-8.568-6.894c-7.681-29.481-23.207-129.996-30.939-226.359
			c3.476,0.125,6.963-0.01,10.425-0.423c34.85-4.139,63.375-35.714,69.548-69.357c8.581-46.44-35.903-101.008-83.02-73.347
			c0,0,8.624-103.534-43.539-170.602c0.232-0.661,0.453-1.327,0.664-1.999c0.902-2.874-2.891-4.887-4.872-3.172
			c-29.603-34.782-77.089-58.103-153.061-48.578c0,0-85.39-20.138-122.692,40.65c0,0-9.296,4.596-21.106,17.52
			c-0.159-0.159-0.317-0.319-0.476-0.479c-1.561-1.571-3.928,0.415-2.974,2.293c0.222,0.44,0.451,0.878,0.684,1.315
			c-19.99,23.394-45.371,70.083-46.007,156.673c-40.651-8.978-74.727,38.566-67.121,79.725
			c5.596,30.515,29.586,59.329,60.002,67.511c-7.737,90.368-20.855,185.798-34.62,251c-2.164,10.247-3.683,20.546-4.577,30.839
			c0,0-7.459,7.39-30.128,38.508c-19.918,27.239-39.339,57.758-56.839,90.788c-0.042,0.08-0.084,0.159-0.128,0.239
			c-0.547,1.034-1.092,2.07-1.636,3.109c-0.043,0.084-0.088,0.168-0.13,0.252c-0.562,1.071-1.12,2.146-1.674,3.222
			c-0.034,0.066-0.068,0.132-0.102,0.198c-0.579,1.122-1.156,2.247-1.73,3.375c-0.025,0.049-0.051,0.097-0.074,0.147
			c-0.598,1.173-1.193,2.349-1.785,3.529c-0.003,0.007-0.006,0.013-0.01,0.02c-0.622,1.237-1.24,2.478-1.855,3.722
			c-0.344,0.691-0.684,1.383-1.025,2.077c-3.31,6.738-6.51,13.587-9.633,20.512c-44.816,99.362-44.862,156.305-27.871,188.769
			c1.299,3.254,3.182,6.353,5.669,9.146c0.175,0.239,0.348,0.475,0.525,0.71c3.578,4.78,7.628,8.873,12.019,12.299
			c7.288,7.366,15.637,15.509,25.024,24.221c-2.533,15.873-4.981,31.757-7.345,47.667c-46.93,317.887-57.087,641.194-29.654,961.338
			c1.654,19.381,4.064,40.231,17.008,54.758c9.484,10.649,23.22,16.256,36.581,21.262c4.842,1.804,9.697,3.569,14.566,5.296
			c0.227,4.559,0.466,9.121,0.715,13.688c206.596,73.288,483.611,77.235,679.68,0c0,0-0.12-2.249-0.359-6.547
			c11.613-1.452,23.942-8.784,32.093-19.813C1282.247,2280.961,1293.162,2201.82,1291.206,2174.271z"/>
		<g>
			<path style="fill:#332323;" d="M960.796,637.556c-2.315,1.457-4.657,2.853-7.024,4.188l-8.42,44.174l-1.32,6.925l-4.619,24.35
				c10.692,1.705,21.33,3.77,31.887,6.182c0.295-0.416,0.729-0.725,1.301-0.824c4.066-0.699,7.374,0.845,9.77,3.487
				c4.212,1.065,8.41,2.185,12.592,3.359c0.298,0.083,0.596,0.167,0.895,0.251c0.206,0.058,0.412,0.117,0.619,0.176
				c7.454,2.112,14.854,4.399,22.188,6.864c8.731,2.935,17.387,6.096,25.93,9.484c4.666,1.843,9.334,3.762,13.923,5.795
				c1.807,0.754,3.613,1.544,5.419,2.335c2.834,1.26,5.542,2.747,8.104,4.436c5.379,2.311,10.6,5.213,15.573,8.726
				c-7.681-29.481-23.207-129.995-30.939-226.358c-11.304-0.406-22.504-3.585-32.415-9.077
				C1012.334,581.017,991.432,618.275,960.796,637.556z"/>
			<path style="fill:#332323;" d="M679.799,400.271c2.229,1.505,4.391,3.057,6.503,4.685c-0.1-1.503-0.194-3.008-0.283-4.513
				c6.977-2.572,11.81-9.213,15.18-15.927c11.109-22.135,11.567-48.134,8.536-72.715c3.479,6.155,11.081,4.666,17.798,2.461
				c6.72-2.202,11.967-7.418,16.668-12.702c5.02-5.648,9.725-11.576,14.089-17.747c-22.505-12.336-41.625-29.262-52.031-48.89
				c-19.989,23.394-45.371,70.083-46.007,156.673c5.215,1.152,10.538,3.233,15.895,6.379
				C677.353,398.691,678.594,399.445,679.799,400.271z"/>
			<path style="fill:#332323;" d="M653.58,777.904c0.058-0.057,0.117-0.113,0.175-0.17c0.29-0.282,0.581-0.564,0.871-0.844
				c0.379-0.365,0.756-0.729,1.133-1.09c0.052-0.049,0.102-0.097,0.153-0.146c0.316-0.302,0.632-0.605,0.947-0.905
				c0.383-0.364,0.764-0.726,1.145-1.087c0.015-0.014,0.031-0.029,0.046-0.043c0.354-0.335,0.708-0.669,1.061-1
				c0.391-0.367,0.782-0.733,1.171-1.097c0.395-0.368,0.789-0.736,1.184-1.101c0.405-0.375,0.809-0.748,1.211-1.118
				c0.394-0.362,0.786-0.722,1.178-1.08c11.416-10.395,24.614-17.056,38.302-20.269c0.61-0.513,1.228-1.02,1.856-1.518
				c3.991-3.163,8.355-6.022,13.023-8.581c7.678-4.215,16.22-7.716,25.138-10.613c16.943-5.469,35.45-8.804,52.973-11.03
				c0.987-0.127,1.97-0.252,2.95-0.373c1.785-0.214,3.557-0.415,5.315-0.608l-5.245-27.543l-1.206-6.398l-6.835-35.943
				c-5.266-2.421-10.498-5.086-15.685-7.997c-28.243-21.227-50.287-60.076-65.427-107.392c-13.681,8.621-30.275,12.639-46.34,10.724
				c-3.24-0.385-6.425-1.007-9.543-1.846c-7.736,90.369-20.854,185.798-34.62,251c-2.163,10.247-3.682,20.546-4.577,30.839
				C627.439,804.638,640.805,790.302,653.58,777.904z"/>
			<path style="fill:#CC5D3B;" d="M712.522,1146.437l-0.379-0.038c-0.435,6.443-1.685,12.816-3.708,18.978
				c-0.101,0.308-0.203,0.617-0.308,0.924c-0.037,0.108-0.074,0.215-0.111,0.322c-0.099,0.284-0.198,0.567-0.3,0.85
				c-0.126,0.352-0.254,0.704-0.385,1.055c-0.006,0.014-0.01,0.028-0.015,0.041c-0.09,0.236-0.18,0.472-0.271,0.707
				c-0.05,0.13-0.101,0.26-0.152,0.389c-0.059,0.15-0.118,0.299-0.178,0.449c-0.099,0.248-0.2,0.494-0.301,0.741
				c-0.021,0.051-0.042,0.102-0.063,0.152c-0.555,1.336-1.147,2.659-1.778,3.968c30.9,31.776,63.18,59.865,90.732,82.094
				c17.658,6.539,34.903,11.015,51.641,13.781C800.169,1231.599,755.272,1190.016,712.522,1146.437z"/>
			<path style="fill:#CC5D3B;" d="M1067.291,1150.627c-0.104-1.885-0.093-3.775,0.034-5.659
				c-30.407,31.349-64.014,59.611-100.139,84.224c-9.824,6.7-41.246,31.161-68.305,45.123c19.221-1.673,44.141-5.714,65.56-10.859
				c32.117-25.893,70.7-59.777,106.049-98.201c-0.038-0.101-0.076-0.201-0.115-0.302
				C1068.585,1160.316,1067.557,1155.485,1067.291,1150.627z"/>
			<g>
				<path style="fill:#3F7A61;" d="M673.458,1045.745c0.671-1.031,1.345-2.063,2.025-3.102c1.923-2.949,3.88-5.928,5.871-8.935
					c0.274-0.415,0.55-0.831,0.827-1.247c0.154-0.234,0.31-0.468,0.465-0.703c7.794,25.744,16.247,51.349,23.702,77.308
					c55.962,20.133,213.567,64.766,373.246,0.038c4.905-12.155,10.379-26.945,15.658-43.773c3.454,5.428,6.787,10.737,10.001,15.923
					c2.595,4.177,5.079,8.242,7.49,12.268c37.671-44.595,82.718-82.905,132.617-113.163c-22.052-45.76-48.284-87.46-75.04-123.097
					c-25.214-33.568-50.917-61.756-74.138-82.905c-2.757-2.516-5.62-4.812-8.568-6.894c-4.974-3.513-10.195-6.415-15.574-8.727
					c-2.562-1.688-5.27-3.176-8.104-4.436c-1.807-0.79-3.613-1.581-5.419-2.334c-4.589-2.033-9.258-3.952-13.924-5.795
					c-8.542-3.387-17.199-6.549-25.929-9.484l-23.748,69.282c-7.9,23.069-21.674,43.617-40.002,59.686l-70.073,61.455l-72.48-58.218
					c-21.115-16.935-36.807-39.666-45.238-65.369c-8.316-25.403-16.633-50.842-24.95-76.282c-8.917,2.897-17.46,6.397-25.137,10.613
					c-4.669,2.559-9.032,5.418-13.023,8.581c-0.628,0.498-1.247,1.004-1.856,1.518c-0.005,0.004-0.01,0.008-0.014,0.012
					c-13.679,3.209-26.864,9.875-38.288,20.257c-0.393,0.358-0.786,0.718-1.178,1.079c-0.404,0.371-0.807,0.744-1.211,1.119
					c-0.394,0.365-0.789,0.732-1.185,1.101c-0.39,0.364-0.779,0.73-1.17,1.097c-0.353,0.331-0.708,0.665-1.061,1
					c-0.016,0.014-0.032,0.029-0.046,0.043c-0.382,0.36-0.764,0.723-1.145,1.087c-0.315,0.3-0.631,0.602-0.948,0.905
					c-0.05,0.049-0.1,0.097-0.153,0.146c-0.377,0.361-0.753,0.725-1.132,1.09c-0.291,0.28-0.582,0.562-0.871,0.844
					c-0.059,0.057-0.118,0.113-0.177,0.17c-22.275,21.628-46.359,49.144-69.769,81.278c-19.918,27.239-39.339,57.758-56.839,90.788
					c-0.042,0.08-0.084,0.159-0.128,0.239c-0.547,1.034-1.092,2.07-1.636,3.109c-0.043,0.084-0.088,0.168-0.13,0.252
					c-0.562,1.071-1.12,2.146-1.674,3.222c-0.034,0.066-0.068,0.132-0.102,0.198c-0.579,1.122-1.156,2.247-1.73,3.375
					c-0.025,0.049-0.051,0.097-0.074,0.147c-0.598,1.173-1.193,2.349-1.785,3.529c-0.003,0.007-0.006,0.013-0.01,0.02
					c-0.622,1.237-1.24,2.478-1.855,3.722c-0.344,0.691-0.684,1.383-1.025,2.077c48.625,31.313,95.099,65.972,139.017,103.605
					C661.342,1064.561,667.217,1055.322,673.458,1045.745z"/>
				<path style="fill:#3F7A61;" d="M897.386,1274.361c-0.337,0.009-0.676,0.017-1.013,0.025c-0.154,0.004-0.308,0.008-0.461,0.011
					c-0.388,0.008-0.774,0.016-1.162,0.023c-0.108,0.002-0.216,0.004-0.325,0.006c-13.755,0.229-27.981-0.631-42.623-2.808
					c-0.051-0.007-0.104-0.016-0.156-0.023c-0.472-0.071-0.946-0.142-1.422-0.216c-0.001,0-0.001,0-0.003-0.001
					c-1.094-0.151-2.185-0.34-3.276-0.528c-16.738-2.766-33.983-7.241-51.641-13.78c3.996,3.223,7.892,6.324,11.671,9.294
					c0.103,0.082,0.205,0.164,0.308,0.246c31.238,13.727,58.161,37.195,76.152,66.188c0.153-0.22,0.307-0.439,0.461-0.658
					c0.089-0.126,0.179-0.251,0.268-0.377c0.308-0.435,0.619-0.868,0.932-1.299c0.085-0.12,0.171-0.239,0.259-0.358
					c0.38-0.523,0.765-1.044,1.151-1.563c0.078-0.103,0.156-0.206,0.232-0.31c0.314-0.42,0.633-0.838,0.951-1.255
					c0.115-0.151,0.231-0.301,0.347-0.452c0.07-0.091,0.138-0.184,0.21-0.275c0.041-0.054,0.084-0.107,0.127-0.159
					c2.069-2.671,4.217-5.282,6.443-7.826c14.653-16.744,32.552-30.665,52.442-40.596c1.811-1.814,3.751-3.544,5.825-5.174
					c3.68-2.892,7.472-5.91,11.357-9.043c-21.42,5.145-46.339,9.186-65.56,10.859
					C898.383,1274.331,897.885,1274.346,897.386,1274.361z"/>
				<path style="fill:#3F7A61;" d="M1155.904,1505.871c-9.813-64.213-20.569-123.805-32.282-174.835
					c-0.514-2.509-1.131-5.365-1.872-8.588c-30.363,20.011-64.363,39.724-101.791,57.573c-1.964,0.936-3.958,1.763-5.976,2.486
					c-8.902,17.752-20.86,35.76-34.975,49.698c-0.962,1.303-1.848,2.636-2.541,4.051c-3.762,7.681-3.705,17.115,0.684,24.545
					c2.016,3.416,4.809,6.315,6.952,9.654c2.144,3.339,3.642,7.418,2.64,11.257c-0.983,3.753-4.284,6.615-7.983,7.781
					c-3.699,1.168-7.732,0.827-11.478-0.181c-12.734-3.432-22.51-14.347-27.246-26.656c-0.967-2.511-1.745-5.074-2.368-7.676
					c-0.451,3.874-0.659,7.776-0.612,11.676c0.073,6.113,0.668,12.618-2.299,17.963c-4.246,7.644-15.921,9.754-22.574,4.079
					c-5.537-4.721-6.831-12.661-7.34-19.919c-0.51-7.262-0.493-14.414-0.086-21.522c-0.359,0.141-0.723,0.265-1.092,0.37
					c-1.927,7.723-3.162,15.617-3.668,23.56c-0.322,5.073-0.487,10.549-3.604,14.564c-5.454,7.021-17.431,5.213-23.293-1.471
					c-0.62-0.706-1.186-1.445-1.706-2.211c-2.296-0.664-4.357-1.942-5.897-3.926c-3.117-4.013-3.283-9.492-3.607-14.564
					c-0.168-2.643-0.419-5.281-0.747-7.909c-1.304-0.019-2.576-0.275-3.787-0.722c-0.063,2.066-0.164,4.139-0.31,6.221
					c-0.509,7.258-1.807,15.199-7.34,19.92c-6.653,5.674-18.329,3.565-22.574-4.079c-2.97-5.344-2.372-11.851-2.299-17.964
					c0.046-3.898-0.162-7.8-0.614-11.672c-0.623,2.6-1.401,5.163-2.367,7.673c-4.735,12.308-14.512,23.223-27.246,26.655
					c-3.746,1.009-7.779,1.348-11.478,0.183c-3.699-1.166-7-4.03-7.982-7.782c-1.002-3.839,0.496-7.918,2.64-11.257
					c2.143-3.34,4.936-6.237,6.952-9.654c4.389-7.429,4.446-16.864,0.68-24.545c-0.701-1.43-1.598-2.778-2.573-4.094
					c-13.443-13.269-24.931-30.247-33.668-47.154c-3.08-0.929-6.116-2.098-9.08-3.511c-32.641-15.566-62.675-32.551-89.964-49.915
					c-0.338-0.216-0.676-0.431-1.012-0.647c-5.348,22.131-14.441,61.54-25.012,114.745
					c-35.726,179.816-88.348,517.211-70.398,877.764c0.227,4.559,0.466,9.121,0.715,13.688c206.596,73.288,483.611,77.235,679.68,0
					c0,0-0.12-2.249-0.359-6.547C1230.487,2264.559,1205.028,1827.322,1155.904,1505.871z"/>
			</g>
			<g>
				<path style="fill:#CC5D3B;" d="M689.533,438.926c-1.393-11.22-2.473-22.57-3.23-33.97c-2.113-1.629-4.276-3.18-6.504-4.685
					c-1.205-0.827-2.445-1.581-3.651-2.295c-5.357-3.145-10.681-5.227-15.895-6.378c-40.651-8.978-74.727,38.566-67.121,79.725
					c5.596,30.515,29.586,59.329,60.002,67.511c3.117,0.838,6.301,1.461,9.542,1.846c16.064,1.915,32.659-2.103,46.34-10.724
					c-6.864-21.452-12.308-44.644-16.269-68.725C691.536,453.872,690.463,446.428,689.533,438.926z"/>
				<path style="fill:#CC5D3B;" d="M1053.63,397.977c-1.205,0.714-2.445,1.468-3.651,2.295c-2.897,1.958-5.684,3.99-8.39,6.173
					c-1.777,1.382-3.518,2.808-5.224,4.276c-0.003,0.026-0.005,0.05-0.006,0.076c0.097,11.01-0.067,21.796-0.495,32.323
					c-0.237,5.833-0.555,11.587-0.956,17.256c-1.823,25.833-5.351,49.899-10.648,71.652c9.912,5.493,21.112,8.67,32.416,9.077
					c3.476,0.125,6.963-0.01,10.425-0.423c34.85-4.139,63.375-35.714,69.548-69.357
					C1145.231,424.884,1100.748,370.316,1053.63,397.977z"/>
			</g>
			<path style="fill:#CC5D3B;" d="M838.098,712.563c26.304,11.967,58.331,8.542,83.093-6.398
				c9.07-5.494,17.161-12.343,24.161-20.248l8.42-44.174c-48.668,27.465-108.015,29.183-163.644,3.603l6.835,35.943
				C809.421,694.198,823.91,706.089,838.098,712.563z"/>
			<path style="fill:#CC5D3B;" d="M744.951,429.869c1.593,2.797,3.302,5.501,5.117,8.085c-1.614-2.671-3.001-5.451-4.165-8.311
				C745.589,429.733,745.272,429.809,744.951,429.869z"/>
			<path style="fill:#CC5D3B;" d="M743.814,423.639c-0.58-1.992-1.058-4.013-1.438-6.055c-1.174,0.038-2.354-0.052-3.526-0.259
				c0.882,2.154,1.832,4.278,2.846,6.366c0.118,0.019,0.236,0.037,0.355,0.05C742.677,423.813,743.256,423.761,743.814,423.639z"/>
			<path style="fill:#CC5D3B;" d="M741.358,401.992c-5.181-0.795-9.602-6.245-9.1-11.505c0.182-1.902,2.63-2.802,3.718-1.006
				c1.049,1.73,1.971,3.137,3.511,4.488c0.758,0.667,1.607,1.235,2.477,1.769c0.85-5.938,2.472-11.814,4.841-17.444
				c7.833-18.6,30.414-33.123,48.831-19.187c0.229,0.174,0.382,0.375,0.474,0.585c7.223,4.73,12.367,12.262,15.946,20.816
				c0.213,0.509,0.418,1.023,0.621,1.539c-0.937-3.844-1.946-7.671-3.025-11.476c-4.764-16.776-11.774-34.284-26.324-43.9
				c-3.039-2.008-6.473-3.631-10.033-4.21c-0.325,2.206-1.743,4.208-4.31,4.801c-4.201,0.97-8.892,3.556-12.677,5.699
				c-3.56,2.018-5.896,5.75-9.154,8.017c-1.218,1.061-2.873,1.653-4.602,1.762c-8.376,12.777-12.158,28.87-11.043,44.26
				c0.488,6.758,1.816,13.676,3.854,20.471c1.97,0.794,3.956,1.16,5.992,1.427C741.238,406.604,741.24,404.298,741.358,401.992z"/>
			<path style="fill:#CC5D3B;" d="M757.914,445.648c-0.139,0.43-0.505,0.779-0.917,0.863c1.883,1.898,4.022,3.722,6.344,5.405
				C761.363,449.999,759.55,447.892,757.914,445.648z"/>
			<path style="fill:#CC5D3B;" d="M925.317,359.691c0.091-0.21,0.243-0.411,0.472-0.584c18.386-13.913,41.042,0.557,48.831,19.187
				c2.357,5.639,3.974,11.518,4.822,17.456c0.88-0.537,1.737-1.109,2.499-1.781c1.53-1.353,2.461-2.762,3.508-4.488
				c1.091-1.798,3.536-0.892,3.718,1.006c0.503,5.266-3.928,10.722-9.116,11.508c0.12,2.306,0.124,4.611,0.01,6.906
				c2.04-0.267,4.029-0.633,6.005-1.43c2.038-6.794,3.367-13.712,3.856-20.471c1.234-17.08-3.559-35.026-13.971-48.344
				c-2.507,0.117-5.085-0.871-6.879-3.457c-4.01-5.775-9.982-8.833-15.465-12.73c-0.337-0.059-0.676-0.108-1.019-0.146
				c-5.114-0.561-10.196,1.511-14.49,4.348c-14.55,9.616-21.559,27.124-26.324,43.9c-1.08,3.806-2.088,7.633-3.025,11.476
				c0.203-0.516,0.408-1.03,0.621-1.539C912.949,371.953,918.094,364.421,925.317,359.691z"/>
			<path style="fill:#CC5D3B;" d="M971.369,437.938c1.81-2.579,3.517-5.278,5.107-8.07c-0.321-0.061-0.639-0.136-0.951-0.227
				C974.364,432.496,972.98,435.271,971.369,437.938z"/>
			<path style="fill:#CC5D3B;" d="M963.514,445.646c-1.637,2.246-3.45,4.354-5.43,6.271c2.323-1.683,4.461-3.506,6.344-5.404
				C964.016,446.428,963.653,446.077,963.514,445.646z"/>
			<path style="fill:#CC5D3B;" d="M979.045,417.584c-0.379,2.042-0.855,4.063-1.433,6.056c0.558,0.121,1.138,0.174,1.763,0.103
				c0.119-0.013,0.237-0.031,0.355-0.05c1.014-2.088,1.965-4.213,2.846-6.368C981.403,417.532,980.221,417.623,979.045,417.584z"/>
			<path style="fill:#FFEFD7;" d="M819.328,419.824c-0.059-10.951-1.767-25.311-6.65-37.778c-0.202-0.516-0.407-1.03-0.62-1.539
				c-3.58-8.554-8.724-16.085-15.946-20.816c0.417,0.966-0.515,2.116-1.733,1.573c-24.457-10.912-40.006,12.51-43.272,33.541
				c-2.557,16.449-0.658,34.973,6.749,49.962c0.144,0.295,0.148,0.604,0.059,0.88c1.636,2.245,3.449,4.352,5.427,6.269
				c3.542,3.433,7.621,6.261,12.18,8.192c11.157,4.724,25.268,3.167,33.801-5.435c5.182-5.227,7.76-12.141,8.986-19.491
				c0.682-4.087,0.946-8.31,1.006-12.453C819.329,421.756,819.332,420.786,819.328,419.824z"/>
			<path style="fill:#332323;" d="M802.634,387.342c-7.942-4.63-18.027-0.301-20.587,8.392c-0.264,0.94-0.49,1.956-0.639,3.01
				c-0.827,2.71-1.129,5.682-0.715,8.768c1.091,8.655,3.425,18.855,11.78,23.407c7,3.839,15.692,1.317,19.871-5.381
				c2.484-3.99,2.859-8.768,2.936-13.397C815.467,402.168,811.551,392.497,802.634,387.342z"/>
			<path style="fill:#332323;" d="M757.914,445.648c0.089-0.276,0.086-0.585-0.06-0.88c-7.407-14.989-9.306-33.513-6.749-49.962
				c3.266-21.032,18.815-44.454,43.272-33.542c1.218,0.543,2.151-0.606,1.733-1.573c-0.091-0.21-0.245-0.411-0.474-0.585
				c-18.417-13.936-40.998,0.587-48.831,19.187c-2.369,5.629-3.99,11.506-4.841,17.444c-0.871-0.534-1.719-1.102-2.477-1.769
				c-1.54-1.35-2.462-2.757-3.511-4.488c-1.088-1.795-3.536-0.895-3.718,1.006c-0.503,5.26,3.919,10.71,9.1,11.505
				c-0.118,2.306-0.121,4.612-0.004,6.906c-2.037-0.267-4.022-0.634-5.992-1.427c-0.838-0.338-1.674-0.751-2.509-1.269
				c-4.799-2.975-7.067-7.383-9.554-12.251c-0.938-1.832-3.508-0.81-3.622,0.982c-0.647,9.974,8.935,20.589,19.173,22.393
				c1.172,0.206,2.352,0.297,3.526,0.259c0.38,2.042,0.858,4.063,1.438,6.055c-0.557,0.121-1.137,0.174-1.763,0.103
				c-0.119-0.013-0.237-0.031-0.355-0.05c-2.329-0.367-4.447-1.674-6.76-2.103c-1.613-0.299-3.6,1.477-2.401,3.12
				c2.293,3.14,5.906,5.155,9.814,5.34c0.844,0.04,1.732-0.016,2.601-0.18c0.321-0.06,0.638-0.135,0.952-0.226
				c1.165,2.86,2.552,5.64,4.165,8.311c1.733,2.87,3.727,5.616,5.986,8.204c0.286,0.328,0.627,0.418,0.943,0.354
				C757.409,446.427,757.775,446.078,757.914,445.648z"/>
			<path style="fill:#FFEFD7;" d="M970.322,394.806c-3.225-21.069-18.987-44.375-43.272-33.541c-1.221,0.545-2.15-0.607-1.732-1.574
				c-7.224,4.73-12.369,12.263-15.948,20.817c-0.213,0.509-0.419,1.023-0.622,1.539c-4.882,12.467-6.591,26.827-6.648,37.778
				c-0.005,0.966-0.001,1.939,0.013,2.917c0.061,4.111,0.322,8.301,0.993,12.358c1.219,7.382,3.797,14.328,9,19.575
				c8.533,8.602,22.644,10.16,33.801,5.435c4.559-1.931,8.636-4.758,12.179-8.191c1.98-1.918,3.792-4.026,5.429-6.271
				c-0.089-0.277-0.086-0.586,0.059-0.878C970.993,429.758,972.847,411.294,970.322,394.806z"/>
			<path style="fill:#332323;" d="M909.083,425.539c4.179,6.698,12.87,9.22,19.871,5.381c8.355-4.552,10.689-14.752,11.78-23.407
				c0.414-3.087,0.111-6.059-0.716-8.768c-0.15-1.055-0.375-2.071-0.639-3.01c-2.56-8.693-12.645-13.022-20.587-8.392
				c-8.917,5.155-12.833,14.826-12.645,24.8C906.224,416.771,906.599,421.549,909.083,425.539z"/>
			<path style="fill:#332323;" d="M980.051,401.995c5.188-0.785,9.619-6.241,9.116-11.508c-0.182-1.899-2.627-2.805-3.718-1.006
				c-1.046,1.725-1.978,3.134-3.508,4.488c-0.762,0.672-1.619,1.245-2.499,1.781c-0.849-5.938-2.465-11.817-4.822-17.456
				c-7.789-18.63-30.446-33.099-48.831-19.187c-0.229,0.173-0.382,0.374-0.472,0.584c-0.418,0.966,0.512,2.119,1.732,1.574
				c24.285-10.834,40.047,12.472,43.272,33.542c2.525,16.488,0.671,34.952-6.749,49.962c-0.144,0.293-0.147,0.601-0.058,0.878
				c0.139,0.431,0.503,0.782,0.914,0.868c0.314,0.065,0.656-0.025,0.944-0.355c2.265-2.595,4.263-5.346,5.997-8.219
				c1.611-2.668,2.994-5.442,4.156-8.296c0.313,0.091,0.63,0.166,0.951,0.227c0.868,0.164,1.757,0.22,2.6,0.18
				c3.912-0.185,7.518-2.196,9.815-5.34c1.202-1.648-0.776-3.421-2.401-3.12c-2.313,0.429-4.43,1.736-6.76,2.103
				c-0.118,0.019-0.235,0.037-0.355,0.05c-0.626,0.071-1.206,0.019-1.763-0.103c0.578-1.992,1.054-4.014,1.433-6.056
				c1.176,0.039,2.357-0.052,3.531-0.259c10.236-1.804,19.82-12.415,19.173-22.392c-0.114-1.79-2.684-2.817-3.622-0.982
				c-2.484,4.866-4.749,9.272-9.554,12.251c-0.836,0.518-1.671,0.931-2.508,1.269c-1.975,0.797-3.964,1.163-6.005,1.43
				C980.175,406.606,980.171,404.301,980.051,401.995z"/>
			<path style="fill:#332323;" d="M756.309,332.961c3.785-2.143,8.475-4.729,12.677-5.699c2.567-0.593,3.986-2.595,4.31-4.801
				c0.428-2.91-1.048-6.175-4.31-7.03c-7.827-2.051-14.423-2.128-21.668,2.148c-6.1,3.604-13.799,10.16-13.434,17.899
				c0.242,5.158,4.653,7.514,8.668,7.262c1.73-0.109,3.384-0.701,4.602-1.762C750.413,338.711,752.748,334.978,756.309,332.961z"/>
			<path style="fill:#332323;" d="M969.071,335.199c1.795,2.586,4.372,3.574,6.879,3.457c1.984-0.092,3.923-0.876,5.394-2.107
				l-0.029,0.227c0.493-0.393,0.908-0.903,1.246-1.486c1.642-2.13,2.05-5.025-0.028-7.961c-6.513-9.201-18.357-19.207-30.487-15.461
				c-3.139,0.97-4.821,5.391-2.058,7.789c1.162,1.008,2.378,1.932,3.617,2.813C959.089,326.366,965.061,329.423,969.071,335.199z"/>
			<path style="fill:#EB5A47;" d="M860.678,485.867c13.332,0,24.142-6.602,24.142-14.746c0-6.677-16.219-23.7-22.072-29.621
				c-1.142-1.156-2.999-1.156-4.141,0c-5.852,5.922-22.072,22.945-22.072,29.621C836.536,479.265,847.346,485.867,860.678,485.867z"
				/>
			<path style="fill:#EB5A47;" d="M750.858,470.215c-19.553,0-35.404,12.141-35.404,27.116c0,14.977,15.851,27.117,35.404,27.117
				c19.549,0,35.4-12.141,35.4-27.117C786.258,482.356,770.407,470.215,750.858,470.215z"/>
			<path style="fill:#EB5A47;" d="M972.435,470.215c-19.55,0-35.4,12.141-35.4,27.116c0,14.977,15.851,27.117,35.4,27.117
				c19.553,0,35.404-12.141,35.404-27.117C1007.839,482.356,991.989,470.215,972.435,470.215z"/>
			<path style="fill:#332323;" d="M884.801,547.646c0.461-3.622-5.219-4.122-6.196-0.84c-5.114,17.207-31.845,4.996-35.146-7.008
				c-0.811-2.947-4.977-3.508-6.517-0.851c-6.844,11.81,11.074,20.362,20.37,21.544
				C866.088,561.606,883.466,558.098,884.801,547.646z"/>
			<path style="fill:#332323;" d="M762.395,277.781c1.908-2.914,3.741-5.876,5.496-8.884c7.134,8.07,20.956,9.789,29.943,3.85
				c2.815,2.678,7.353,2.872,11.09,1.799c3.734-1.075,6.914-3.548,9.662-6.292c6.125-6.118,10.517-13.722,14.658-21.321
				c7.49-13.739,14.404-27.789,20.723-42.104c5.732,15.686,14.859,29.123,25.682,41.843c6.078,7.144,13.51,14.016,22.778,15.471
				c9.268,1.455,20.176-5.005,20.126-14.385c2.251,9.374,6.234,17.076,12.435,24.459c2.715,3.235,5.848,6.249,9.635,8.081
				c26.614-12.996,46.888-30.958,60.606-57.25c0.18-0.346,0.403-0.624,0.655-0.842c-29.602-34.783-77.088-58.104-153.061-48.579
				c0,0-85.389-20.138-122.692,40.65c0,0-9.295,4.596-21.106,17.521C726.331,249.234,741.536,265.662,762.395,277.781z"/>
			<path style="fill:#332323;" d="M958.806,280.328c5.632,13.709,16.747,25.693,30.982,29.8c5.079,1.466,12.162,1.074,13.675-3.995
				c0.678,24.38,3.095,48.333,11.733,71.141c4.806,12.691,20.227,48.093,21.086,34.55c0.019-0.302,0.046-0.647,0.078-1.027
				c0.001-0.026,0.004-0.051,0.006-0.076c1.706-1.468,3.448-2.894,5.224-4.275c2.706-2.184,5.492-4.216,8.39-6.173
				c1.205-0.827,2.446-1.581,3.651-2.294c0,0,8.624-103.535-43.539-170.603C1001.838,250.915,980.357,268.115,958.806,280.328z"/>
			<path style="fill:#DC0C15;" d="M862.183,377.24c5.527,0,10.008-4.481,10.008-10.009s-4.482-10.009-10.008-10.009
				c-5.528,0-10.009,4.481-10.009,10.009S856.655,377.24,862.183,377.24z"/>
			<path style="fill:#CC5D3B;" d="M856.787,1434.727c0.55,6.697,0.777,13.42,0.569,20.223c1.211,0.447,2.482,0.703,3.787,0.722
				C860.259,1448.588,858.797,1441.577,856.787,1434.727z"/>
			<path style="fill:#CC5D3B;" d="M896.394,1485.752c3.117-4.016,3.282-9.492,3.603-14.565c0.506-7.943,1.742-15.838,3.669-23.56
				c-1.237,0.354-2.529,0.506-3.847,0.411c-1.348-0.097-2.641-0.444-3.859-0.984c0.017,1.54,0.015,3.051-0.005,4.522
				c-0.121,8.889-1.304,18.413-7.165,25.098c-4.206,4.797-11.56,7.082-17.394,5.397c0.519,0.766,1.086,1.504,1.706,2.211
				C878.962,1490.965,890.94,1492.773,896.394,1485.752z"/>
			<path style="fill:#CC5D3B;" d="M904.844,1468.779c0.509,7.258,1.804,15.197,7.34,19.919c6.653,5.676,18.329,3.565,22.574-4.079
				c2.967-5.345,2.372-11.85,2.299-17.963c-0.047-3.9,0.161-7.803,0.613-11.676c-2.262-9.452-2.425-19.41-1.695-29.178
				c0.001-0.005,0.003-0.009,0.004-0.014c1.867-8.854-20.052-37.508-21.369-47.305c-1.822-13.665-3.597-36.689-12.279-51.358
				c-3.012-5.094-10.258-5.597-13.959-1.03c-0.043,0.052-0.086,0.105-0.127,0.159c-0.07,0.091-0.139,0.183-0.21,0.275
				c-0.116,0.15-0.232,0.301-0.347,0.452c-0.318,0.417-0.635,0.836-0.951,1.255c-0.077,0.103-0.155,0.206-0.233,0.31
				c-0.387,0.518-0.771,1.04-1.151,1.563c-0.087,0.119-0.173,0.239-0.259,0.358c-0.313,0.432-0.623,0.865-0.931,1.299
				c-0.089,0.126-0.179,0.251-0.268,0.377c-0.154,0.219-0.308,0.439-0.461,0.658c1.263,2.035,2.482,4.096,3.655,6.183
				c5.012,5.044,8.491,14.735,10.789,19.54c8.147,17.038,13.659,35.34,16.239,54.049c0.068,0.051,0.188,0.139,0.354,0.263
				c-0.091-0.06-0.184-0.121-0.274-0.181l0.05,0.034c-0.055-0.044-0.097-0.078-0.129-0.104c0.362,2.636,0.669,5.281,0.914,7.931
				c0.553,5.973,0.773,12.203-1.511,17.748c-1.63,3.959-4.868,7.468-8.764,8.995
				C904.351,1454.365,904.333,1461.516,904.844,1468.779z"/>
			<g>
				<path style="fill:#B34927;" d="M680.75,432.089c-27.697-18.74-54.568,13.399-49.562,40.645
					c3.536,19.23,19.833,37.295,39.777,39.665c9.22,1.091,18.78-1.242,26.645-6.248c-0.413-0.112-0.789-0.262-1.167-0.413
					c-5.718-2.258-10.839-6.21-13.997-11.441c-3.2-5.269-4.367-11.779-2.71-17.688c1.317-4.591,4.252-8.617,7.789-11.817
					c1.582-1.389,3.334-2.645,5.222-3.56c-1.21-7.361-2.282-14.804-3.214-22.307C686.758,436.455,683.823,434.167,680.75,432.089z"
					/>
				<path style="fill:#B34927;" d="M1042.254,464.793c3.54,3.199,6.475,7.226,7.792,11.817c1.654,5.909,0.49,12.419-2.71,17.688
					c-3.161,5.231-8.278,9.183-14,11.441c-0.375,0.151-0.754,0.301-1.167,0.413c7.865,5.006,17.425,7.339,26.645,6.248
					c19.944-2.371,36.24-20.435,39.777-39.665c5.006-27.246-21.865-59.385-49.563-40.645c-4.744,3.207-9.161,6.917-13.162,11.03
					c-0.238,5.833-0.556,11.587-0.956,17.256C1037.617,461.247,1040.095,462.896,1042.254,464.793z"/>
			</g>
			<g>
				<path style="fill:#256247;" d="M682.181,1032.462c0.155-0.234,0.311-0.468,0.466-0.703
					c-12.825-42.366-23.862-85.108-25.712-130.427c-1.88-46.929,5.721-103.34,34.586-142.177c3.031-4.109,6.631-7.823,10.623-11.19
					c-13.68,3.209-26.865,9.876-38.289,20.257c-0.392,0.358-0.785,0.718-1.178,1.08c-0.403,0.37-0.807,0.744-1.211,1.118
					c-0.394,0.365-0.789,0.732-1.184,1.101c-0.39,0.364-0.78,0.73-1.171,1.097c-0.353,0.331-0.707,0.665-1.061,1
					c-0.015,0.014-0.031,0.029-0.046,0.043c-0.381,0.361-0.762,0.723-1.145,1.087c-0.315,0.3-0.631,0.602-0.947,0.905
					c-0.051,0.049-0.101,0.097-0.153,0.146c-0.377,0.361-0.754,0.725-1.133,1.09c-0.29,0.28-0.581,0.562-0.871,0.844
					c-0.059,0.057-0.118,0.113-0.175,0.17c-22.276,21.629-46.36,49.144-69.77,81.278c7.299,24.575,24.8,50.654,34.548,70.712
					c17.46,35.903,35.449,71.54,53.965,106.879c1.017,1.956,2.07,3.913,3.161,5.871c1.923-2.949,3.88-5.927,5.871-8.935
					C681.629,1033.294,681.905,1032.878,682.181,1032.462z"/>
				<path style="fill:#256247;" d="M1091.712,781.621c45.525,100.492,26.33,211.08,3.541,283.711
					c3.454,5.428,6.787,10.737,10.001,15.923c26.343-73.195,48.096-148.049,65.067-223.992
					c-25.214-33.568-50.918-61.756-74.137-82.905c-2.758-2.516-5.62-4.811-8.568-6.894c-4.974-3.513-10.194-6.415-15.573-8.726
					C1080.575,764.36,1087.458,772.244,1091.712,781.621z"/>
				<g>
					<path style="fill:#FCC362;" d="M1291.206,2174.271c-20.812-293.877-17.762-544.626-38.574-838.503
						c-1.393-19.758-3.69-39.402-6.698-58.934c-2.341-15.182-5.112-30.302-8.227-45.372
						c-29.001,26.937-67.929,59.333-115.955,90.986c0.741,3.223,1.358,6.078,1.872,8.588
						c11.713,51.029,22.469,110.622,32.282,174.835c49.124,321.451,74.583,758.688,77.842,817.107
						c11.613-1.452,23.942-8.784,32.093-19.813C1282.247,2280.961,1293.162,2201.82,1291.206,2174.271z"/>
					<path style="fill:#FCC362;" d="M706.349,1109.067c-7.455-25.959-15.908-51.564-23.702-77.308
						c-0.156,0.235-0.311,0.469-0.465,0.703c-0.277,0.416-0.554,0.832-0.827,1.247c-1.991,3.007-3.948,5.986-5.871,8.935
						c-0.68,1.038-1.354,2.071-2.025,3.102c-6.232,9.588-12.1,18.832-17.619,27.719c-5.48,8.809-10.617,17.269-15.426,25.368
						c18.948,26.826,41.173,52.505,64.16,76.144c0.63-1.309,1.223-2.632,1.778-3.968c0.02-0.051,0.042-0.102,0.062-0.153
						c0.102-0.246,0.204-0.494,0.302-0.741c0.06-0.15,0.119-0.299,0.178-0.449c0.05-0.13,0.102-0.259,0.151-0.389
						c0.093-0.236,0.183-0.471,0.272-0.708c0.005-0.013,0.01-0.027,0.015-0.041c0.132-0.351,0.259-0.702,0.386-1.055
						c0.102-0.283,0.2-0.566,0.299-0.85c0.038-0.107,0.074-0.215,0.111-0.322c0.105-0.307,0.207-0.616,0.308-0.924
						c4.746-14.511,5.181-30.225,1.075-45.172C708.496,1116.48,707.44,1112.754,706.349,1109.067z"/>
					<path style="fill:#FCC362;" d="M1105.254,1081.254c-3.214-5.186-6.547-10.495-10.001-15.923
						c-5.279,16.828-10.753,31.618-15.658,43.773c-2.974,7.414-5.76,13.849-8.167,19.156c-0.133,0.295-0.262,0.592-0.388,0.889
						c-0.026,0.059-0.051,0.117-0.076,0.176c-0.113,0.268-0.223,0.537-0.329,0.807c-0.033,0.081-0.065,0.163-0.099,0.244
						c-0.103,0.263-0.203,0.527-0.302,0.79l-0.094,0.253c-0.102,0.277-0.201,0.556-0.298,0.834
						c-0.018,0.051-0.035,0.103-0.052,0.155c-1.395,4.082-2.212,8.301-2.465,12.56c-0.127,1.884-0.138,3.773-0.035,5.658
						c0.28,4.865,1.307,9.698,3.085,14.325c0.038,0.102,0.076,0.201,0.114,0.302c17.578-19.107,34.356-39.334,49.14-60.261
						c-2.225-3.746-4.519-7.569-6.885-11.47C1110.333,1089.496,1107.849,1085.432,1105.254,1081.254z"/>
					<path style="fill:#FCC362;" d="M515.21,1273.184c-46.93,317.887-57.087,641.194-29.654,961.338
						c1.654,19.381,4.064,40.231,17.008,54.758c9.484,10.649,23.22,16.256,36.581,21.262c4.842,1.804,9.697,3.569,14.566,5.296
						c-17.95-360.553,34.672-697.948,70.398-877.764c10.571-53.205,19.664-92.615,25.012-114.745
						c-52.909-33.767-95.436-68.917-126.567-97.811C520.022,1241.39,517.574,1257.274,515.21,1273.184z"/>
					<path style="fill:#FCC362;" d="M986.649,740.35c0.621-4.828-0.938-10.617-4.26-14.294c-0.007-0.006-0.013-0.012-0.018-0.018
						c-2.396-2.641-5.704-4.186-9.77-3.487c-0.572,0.099-1.006,0.408-1.3,0.824c-0.002,0.002-0.005,0.005-0.007,0.008
						c-6.606-1.516-13.249-2.884-19.915-4.119c-1.206,18.553-6.51,57.465-29.205,80.609c-12.041,12.306-27.132,18.29-46.213,18.29
						c-66.307,0-76.357-77.637-77.862-102.324c-0.979,0.121-1.964,0.246-2.95,0.373c-7.583,0.979-15.37,2.15-23.129,3.615
						c0.11,1.403,0.243,2.915,0.404,4.523c-8.552,1.08-14.975,9.258-12.973,18.478c1.129,5.199,4.586,9.318,9.449,11.447
						c1.544,0.676,3.526,1.27,5.534,1.503c-6.966,5.368-9.802,15.023-5.97,23.634c2.978,6.699,11.798,13.644,19.583,12.946
						c-5.136,9.239-5.359,21.466,1.579,29.928c6.331,7.723,22.97,13.224,30.565,4.497c0,0.001,0,0.001,0,0.001
						c-6.037,11.368,2.588,26.001,13.827,30.664c10.697,4.437,23.774,0.332,29.89-9.211c4.195,8.882,11.99,14.907,22.84,12.065
						c7.696-2.016,15.464-8.346,16.326-16.058c7.771,8.083,19.115,12.19,29.133,4.77c7.781-5.765,11.662-16.738,11.293-26.799
						c18.787,11.773,33.303-21.242,24.707-36.376c6.323-1.207,11.369-6.674,12.5-13.439c0.891-5.34-0.798-11.249-4.098-15.847
						C982.206,753.944,985.913,746.077,986.649,740.35z M773.96,750.076c-4.287-0.171-7.906-2.784-9.356-6.829
						c-2.494-6.965,2.029-12.86,8.323-14.348c0.738,6.112,1.856,13.252,3.549,20.931
						C775.677,749.986,774.853,750.112,773.96,750.076z M772.284,775c-2.002-6.675,1.015-12.994,6.196-16.908
						c2.348,8.854,5.489,18.158,9.684,27.253C781.221,786.612,774.545,782.534,772.284,775z M807.035,825.137
						c-4.856-0.369-9.484-2.627-12.877-6.071c-7.006-7.114-6.206-17.33-1.862-25.49c4.861,8.902,10.859,17.394,18.26,24.813
						c1.816,1.816,3.683,3.536,5.602,5.165C813.165,824.347,810.384,825.392,807.035,825.137z M835.131,851.095
						c-7.525-3.646-13.133-13.181-11.206-21.647c10.612,7.161,22.564,11.79,35.772,13.839
						C853.782,850.826,844.846,855.804,835.131,851.095z M895.634,845.446c-1.622,4.648-6.093,6.949-10.711,8.224
						c-8.58,2.369-12.867-3.393-17.013-9.454c2.638,0.192,5.321,0.29,8.051,0.29c7.078,0,13.841-0.646,20.279-1.932
						C896.136,843.532,895.968,844.49,895.634,845.446z M930.952,842.287c-8.159,8.332-17.685,4.123-25.182-2.157
						c11.659-3.69,22.11-9.706,31.277-18.017C936.917,829.348,936.757,836.359,930.952,842.287z M962.663,806.927
						c-1.38,4.588-3.489,10.417-8.825,11.804c-3.602,0.936-7.296-1.425-10.583-2.809c7.748-8.481,13.772-18.196,18.461-28.245
						C965.295,793.507,964.902,799.491,962.663,806.927z M965.105,782.055c-0.224-0.189-0.453-0.372-0.691-0.547
						c3.029-7.391,5.391-14.859,7.23-22.058c2.228,2.64,3.966,5.545,4.198,9.51C976.226,775.547,971.36,781.119,965.105,782.055z
						 M973.301,752.42c1.763-8.141,2.887-15.759,3.602-22.297c2.419,1.985,3.975,4.503,3.913,8.526
						C980.748,743.018,978.105,750.525,973.301,752.42z"/>
					<path style="fill:#FCC362;" d="M706.26,234.926c10.406,19.627,29.526,36.554,52.03,48.89
						c29.34,16.083,64.432,24.362,93.461,20.646c-10.414,13.194-17.294,41.9,4.44,43.969c8.956,0.853,15.949-5.729,17.705-14.203
						c2.032-9.798-2.085-21.737-6.58-31.088c27.938,0.855,58.483-5.744,82.635-18.054c2.93-1.493,5.893-3.078,8.854-4.756
						c21.552-12.213,43.034-29.413,51.287-52.954c0.232-0.661,0.453-1.327,0.664-1.999c0.902-2.874-2.891-4.887-4.872-3.172
						c-0.253,0.219-0.476,0.497-0.655,0.843c-13.718,26.292-33.994,44.254-60.606,57.25c-0.07,0.034-0.142,0.069-0.212,0.104
						c-26.093,12.699-53.645,13.696-81.663,16.812c-0.682-0.117-1.397-0.037-2.063,0.201c-0.377-0.192-0.812-0.302-1.304-0.3
						c-14.655,0.049-27.978,1.934-42.725-0.473c-14.919-2.434-29.511-6.813-43.243-13.136c-3.856-1.776-7.517-3.689-11.018-5.724
						c-20.859-12.12-36.064-28.547-53.369-45.986c-0.159-0.159-0.317-0.319-0.476-0.479c-1.561-1.571-3.928,0.415-2.974,2.293
						C705.799,234.05,706.028,234.488,706.26,234.926z M865.099,320.244c2.596,7.173,3.88,22.43-8.024,21.634
						c-11.672-0.78-8.828-15.534-6.084-22.903c1.938-5.205,5.109-9.438,7.836-14.134
						C860.603,310.089,863.209,315.019,865.099,320.244z"/>
					<path style="fill:#FCC362;" d="M1026.458,799.083c-10.123,29.543-27.889,56.036-51.372,76.583l-88.964,78.014l-92.011-73.912
						c-27.173-21.79-47.231-50.767-58.07-83.885c-6.323-19.343-12.645-38.686-19.003-58.029c-4.669,2.559-9.032,5.418-13.023,8.581
						c5.909,18.063,11.818,36.089,17.727,54.153c11.742,35.863,33.492,67.288,62.923,90.922l101.873,81.815l98.483-86.331
						c25.443-22.316,44.709-51.03,55.659-83.018l17.839-52.009c-4.589-2.033-9.258-3.952-13.924-5.795L1026.458,799.083z"/>
				</g>
				<path style="fill:#256247;" d="M1019.96,1380.021c-1.963,0.937-3.958,1.763-5.975,2.486
					c-8.902,17.752-20.86,35.76-34.974,49.698c-0.962,1.303-1.849,2.636-2.542,4.051c-3.763,7.681-3.705,17.115,0.684,24.545
					c2.017,3.416,4.809,6.315,6.953,9.654c2.143,3.339,3.641,7.418,2.639,11.257c-0.982,3.753-4.284,6.615-7.983,7.781
					c-3.699,1.168-7.732,0.827-11.478-0.181c-12.734-3.432-22.511-14.347-27.246-26.656c-0.966-2.511-1.745-5.074-2.367-7.676
					c-0.453,3.874-0.66,7.776-0.613,11.676c0.073,6.113,0.668,12.618-2.299,17.963c-4.246,7.644-15.921,9.754-22.574,4.079
					c-5.537-4.721-6.831-12.661-7.34-19.919c-0.51-7.262-0.492-14.414-0.085-21.522c-0.359,0.141-0.724,0.265-1.093,0.37
					c-1.927,7.723-3.162,15.617-3.669,23.56c-0.321,5.073-0.486,10.549-3.603,14.565c-5.454,7.021-17.431,5.213-23.293-1.471
					c-0.62-0.706-1.187-1.445-1.706-2.211c-2.297-0.663-4.358-1.942-5.899-3.925c-3.117-4.014-3.282-9.492-3.607-14.565
					c-0.168-2.643-0.418-5.281-0.747-7.909c-1.305-0.019-2.576-0.275-3.787-0.722c-0.063,2.066-0.164,4.139-0.31,6.221
					c-0.509,7.258-1.807,15.199-7.34,19.921c-6.653,5.673-18.328,3.565-22.574-4.079c-2.971-5.344-2.373-11.851-2.3-17.964
					c0.046-3.898-0.162-7.799-0.614-11.672c-0.622,2.601-1.401,5.164-2.366,7.673c-4.736,12.308-14.513,23.223-27.247,26.655
					c-3.746,1.009-7.779,1.349-11.477,0.183c-3.699-1.166-7-4.03-7.983-7.782c-1.002-3.839,0.497-7.918,2.64-11.257
					c2.143-3.339,4.935-6.237,6.952-9.654c4.389-7.429,4.446-16.864,0.681-24.545c-0.7-1.43-1.598-2.778-2.573-4.094
					c-13.444-13.269-24.93-30.247-33.667-47.154c-3.08-0.928-6.115-2.097-9.08-3.511c-32.641-15.566-62.675-32.551-89.963-49.915
					c-0.417,2.557-0.81,5.133-1.176,7.729c-0.528,3.538-1.018,7.112-1.393,10.725c3.95,4.065,7.942,8.167,11.891,12.268
					c9.974,10.274,19.982,20.548,29.956,30.859c13.173,13.51,26.568,27.472,34.208,44.707c7.226,16.335,8.883,34.775,17.012,50.655
					c11.742,22.994,35.827,37.669,60.853,44.03c24.988,6.36,51.181,5.57,76.996,4.703c18.516-0.639,37.258,1.468,55.773,1.318
					c32.364-0.264,70.184-3.351,87.873-30.446c9.595-14.677,10.686-33.155,16.557-49.675c12.795-35.903,46.366-59.272,74.742-84.75
					c0.75-0.678,1.542-1.393,2.292-2.071l0.076-0.037c3.954-3.689,7.865-7.564,11.631-11.629l-1.32-6.397
					c0,0-0.34-4.454-2.485-14.932c-0.514-2.509-1.131-5.365-1.872-8.588C1091.387,1342.46,1057.389,1362.173,1019.96,1380.021z"/>
				<path style="fill:#256247;" d="M884.164,1331.764c0.308-0.435,0.619-0.868,0.931-1.299c0.086-0.119,0.172-0.239,0.259-0.358
					c0.38-0.523,0.765-1.044,1.151-1.563c0.078-0.103,0.156-0.206,0.233-0.31c0.315-0.42,0.633-0.838,0.951-1.255
					c0.115-0.15,0.23-0.301,0.347-0.452c0.07-0.091,0.139-0.183,0.21-0.275c0.042-0.054,0.084-0.107,0.127-0.159
					c2.069-2.671,4.217-5.282,6.443-7.826c14.653-16.744,32.552-30.665,52.442-40.596c1.812-1.815,3.752-3.545,5.825-5.174
					c3.68-2.893,7.473-5.911,11.358-9.044c-21.42,5.145-46.339,9.186-65.56,10.859c-8.017,4.816-0.941,7.639-10.237,8.579
					c-13.962,1.355-26.531-3.875-38.422-11.514c-1.094-0.152-2.185-0.34-3.276-0.528c-16.738-2.766-33.984-7.242-51.641-13.781
					c3.996,3.223,7.892,6.324,11.671,9.294c0.103,0.082,0.205,0.164,0.308,0.246c31.237,13.727,58.16,37.195,76.152,66.188
					c0.153-0.219,0.307-0.439,0.461-0.658C883.986,1332.015,884.075,1331.89,884.164,1331.764z"/>
			</g>
			<g>
				<path style="fill:#F8AA42;" d="M1123.622,1331.036c11.713,51.029,22.469,110.622,32.282,174.835
					c1.647-15.657,3.636-31.215,6.706-46.403c13.361-66.121,47.305-124.942,83.322-182.634c-2.34-15.181-5.112-30.302-8.228-45.372
					c-29.001,26.937-67.928,59.333-115.955,90.986C1122.491,1325.671,1123.108,1328.527,1123.622,1331.036z"/>
				<path style="fill:#F8AA42;" d="M706.413,1170.856c0.102-0.247,0.203-0.494,0.301-0.741c0.06-0.15,0.119-0.299,0.178-0.449
					c0.051-0.129,0.102-0.259,0.152-0.389c0.091-0.235,0.182-0.471,0.271-0.707c0.005-0.014,0.009-0.028,0.015-0.041
					c0.132-0.351,0.259-0.702,0.385-1.055c0.102-0.283,0.201-0.566,0.3-0.85c0.037-0.107,0.074-0.215,0.111-0.322
					c0.105-0.307,0.207-0.616,0.308-0.924c4.746-14.511,5.181-30.225,1.075-45.172c-1.015-3.725-2.071-7.451-3.161-11.139
					c-7.455-25.959-15.909-51.564-23.702-77.308c-0.155,0.234-0.311,0.468-0.466,0.703c-0.276,0.416-0.552,0.832-0.827,1.247
					c-1.991,3.008-3.948,5.986-5.871,8.935c-0.68,1.038-1.355,2.072-2.026,3.102c-6.232,9.587-12.1,18.832-17.619,27.719
					c-5.48,8.809-10.616,17.27-15.426,25.368c18.948,26.826,41.173,52.505,64.16,76.144c0.631-1.309,1.223-2.632,1.778-3.968
					C706.372,1170.958,706.392,1170.907,706.413,1170.856z"/>
				<path style="fill:#F8AA42;" d="M1071.427,1128.26c-0.133,0.295-0.261,0.592-0.388,0.889c-0.026,0.059-0.051,0.117-0.076,0.176
					c-0.113,0.268-0.222,0.537-0.33,0.807c-0.033,0.082-0.065,0.163-0.097,0.244c-0.103,0.263-0.204,0.527-0.303,0.791l-0.093,0.252
					c-0.102,0.278-0.201,0.556-0.298,0.834c-0.018,0.051-0.035,0.103-0.052,0.154c-1.395,4.083-2.211,8.301-2.465,12.56
					c-0.126,1.884-0.137,3.773-0.034,5.659c0.28,4.865,1.306,9.698,3.084,14.325c0.039,0.101,0.078,0.201,0.115,0.302
					c17.577-19.107,34.355-39.334,49.139-60.261c-2.225-3.746-4.52-7.569-6.886-11.471c-2.41-4.026-4.895-8.091-7.489-12.268
					c-3.214-5.186-6.547-10.495-10.001-15.923c-5.279,16.828-10.752,31.619-15.658,43.774
					C1076.621,1116.518,1073.835,1122.954,1071.427,1128.26z"/>
				<path style="fill:#F8AA42;" d="M595.294,1367.944c11.176,17.613,17.686,37.746,24.422,57.466
					c1.444,4.222,2.909,8.444,4.394,12.663c10.571-53.205,19.664-92.615,25.011-114.745
					c-52.908-33.768-95.436-68.917-126.567-97.811c-2.533,15.873-4.98,31.757-7.345,47.667
					c10.088,15.731,23.407,31.425,39.741,48.359C569.215,1336.333,584.306,1350.597,595.294,1367.944z"/>
			</g>
		</g>
	</g>
</g>
</svg>
