<?xml version="1.0" encoding="utf-8"?>
<!-- Generator: Adobe Illustrator 27.5.0, SVG Export Plug-In . SVG Version: 6.00 Build 0)  -->
<svg version="1.1" id="Capa_1" xmlns="http://www.w3.org/2000/svg" xmlns:xlink="http://www.w3.org/1999/xlink" x="0px" y="0px"
	 viewBox="0 0 1898 2372" style="enable-background:new 0 0 1898 2372;" xml:space="preserve">
<g>
	<g>
		<g>
			<path style="fill:#081B39;" d="M779.194,744.408c10.251,27.015,14.533,51.767,12.994,81.236
				c-1.334,25.514,1.498,48.872,19.261,69.081c37.841,43.049,148.375,63.16,194.842,26.261c59.968-47.622,6-136.74,45.495-190.86
				c36.921-50.59,52.587-112.519,28.614-171.989c-14.326-35.548-38.297-65.417-42.428-103.869
				c-3.622-33.758-10.922-67.861-13.354-101.606c-2.038-28.254-6.305-46.045-23.518-70.516
				c-24.91-35.401-73.109-52.099-112.547-40.257c-61.719,18.537-65.785,74.367-73.199,128.049
				c-3.508,25.416-6.12,50.999-9.726,76.296c-2.928,20.541-7.108,40.363-10.714,60.885c-5.112,29.064-20.618,54.899-27.579,83.848
				c-6.471,26.914-12.706,56.754-9.974,84.235c2.342,23.6,12.06,44.296,20.683,66.24
				C778.439,742.436,778.821,743.422,779.194,744.408z"/>
		</g>
		<g>
			<g>
				<path style="fill:#081B39;" d="M818.387,336.883c-6.254,25.636-6.929,52.628-11.291,78.645
					c-2.031,12.116-4.595,24.139-8.001,35.946c-3.809,13.205-9.372,25.797-14.329,38.59c-4.929,12.72-9.204,25.699-14.249,38.365
					c-4.526,11.363-10.262,22.253-15.817,33.135c-9.189,17.999-21.639,43.055-13.613,63.57c0.575,1.469,2.788,1.328,2.831-0.383
					c0.282-11.191,0.11-21.578,3.169-32.514c3.187-11.393,8.558-22.086,13.874-32.602c5.252-10.388,11.072-20.468,15.582-31.221
					c5.304-12.649,9.543-25.809,14.564-38.587c9.596-24.425,16.08-49.064,19.591-75.058c1.658-12.27,2.882-24.596,4.397-36.884
					c1.674-13.577,3.841-27.148,4.854-40.789C820.016,336.191,818.597,336.022,818.387,336.883L818.387,336.883z"/>
			</g>
		</g>
		<g>
			<g>
				<path style="fill:#081B39;" d="M804.238,694.106c-13.358-35.906-22.541-73.195-21.111-111.761
					c0.725-19.542,4.167-38.906,9.433-57.723c2.549-9.11,5.75-18.05,9.524-26.724c3.682-8.463,8.336-16.721,11.146-25.532
					c0.432-1.353-1.365-2.314-2.326-1.354c-6.539,6.526-10.791,15.25-14.379,23.637c-3.739,8.737-6.817,17.728-9.379,26.877
					c-5.394,19.268-7.584,39.283-7.976,59.253c-0.757,38.517,4.892,79.912,24.524,113.558
					C803.86,694.621,804.359,694.43,804.238,694.106L804.238,694.106z"/>
			</g>
		</g>
		<g>
			<g>
				<path style="fill:#081B39;" d="M1053.63,469.353c-11.794-32.236-15.508-66.304-20.481-100.043
					c-2.293-15.558-4.666-31.063-9.203-46.156c-2.172-7.225-4.904-14.238-8.294-20.976c-3.386-6.731-7.356-14.616-14-18.597
					c-0.845-0.506-1.831,0.321-1.606,1.235c1.689,6.865,6.32,12.844,9.553,19.077c3.703,7.141,6.823,14.622,9.475,22.21
					c5.171,14.797,8.331,30.323,10.72,45.785c5.159,33.395,9.422,66.518,23.383,97.658
					C1053.291,469.801,1053.726,469.617,1053.63,469.353L1053.63,469.353z"/>
			</g>
		</g>
		<g>
			<g>
				<path style="fill:#081B39;" d="M1025.344,428.165c-2.283,8.771-0.649,18.606,1.255,27.311
					c2.015,9.212,5.481,17.993,9.574,26.463c8.651,17.903,20.477,34.099,32.068,50.168c11.361,15.749,22.769,31.7,30.741,49.496
					c3.872,8.643,6.672,17.876,7.898,27.277c1.267,9.722,0.248,18.742-0.576,28.407c-0.132,1.541-0.347,3.073-0.58,4.602
					c-0.101,0.658,0.869,1.228,1.181,0.498c15.466-36.201-7.07-73.976-27.283-103.087c-11.383-16.393-23.615-32.26-33.711-49.506
					c-10.1-17.252-16.698-35.535-18.548-55.488c-0.193-2.081-0.323-4.079-0.676-6.141
					C1026.567,427.467,1025.509,427.534,1025.344,428.165L1025.344,428.165z"/>
			</g>
		</g>
	</g>
	<g>
		<path style="fill:#F7A291;" d="M768.221,871.12c-34.865-19.038-44.089,22.532-54.445,45.966
			c-14.067,31.811-79.681,155.584-86.492,163.265c-6.803,7.672-13.188,17.003-24.458,23.804
			c-13.013,7.857-22.521,16.2-30.387,29.145c-2.917,4.788-7.193,14.579-4.472,17.128c4.788,4.489,8.056,0.088,13.038-7.857
			c1.362-2.179,7.315-7.182,9.827-11.753c-3.77,15.244-24.692,35.175-27.906,53.913c-1.95,11.371-0.063,19.008,12.52,20.133
			c15.402,1.378,16.135-11.523,26.792-18.689c4.293-2.884,13.705-3.105,22.412-17.592c4.867-8.108,9.699-18.414,12.379-27.353
			c3.42-11.406,7.476-26.922,11.412-35.208c3.932-8.29,103.596-133.218,116.76-162.725
			C780.795,908.348,782.239,878.773,768.221,871.12z"/>
		<path style="fill:#F7A291;" d="M836.615,595.489c-57.629-6.229-56.729,101.728-66.711,137.549
			c-9.524,34.148-25.691,110.373-37.035,143.758c-7.019,20.639-15.617,32.896,2.816,47.872c18.433,14.974,33.481,4.205,39.173-8.887
			c19.907-45.797,71.156-214.861,79.491-257.245C863.401,612.497,836.615,595.489,836.615,595.489z"/>
	</g>
	<path style="fill:#F7A291;" d="M785.572,994.732c-14.584,48.367-35.87,171.188-35.87,276.911
		c0,163.431,26.16,328.589,28.848,353.774c0.024,0.144,0.055,0.269,0.079,0.414c5.406,51.993-10.554,97.376-9.443,185.563
		c1.324,105.133,31.114,308.981,31.114,308.981c-1.787,15.378-31.169,33.598-63.127,52.255c0,0-17.055,16.052-15.498,19.675
		c4.069,9.459,8.438,8.83,17.036,7.89c21.944-2.402,40.503-11.676,61.186-16.374c10.556-2.4,31.515-4.813,38.288-14.364
		c8.264-11.643,0.891-24.621-0.229-38.871c0,0,24.011-231.627,30.044-320.435c5.761-84.853-11.845-113.777-9.532-169.872
		c0.024-0.256,0.051-0.507,0.079-0.771c-0.011-0.678,0.03-1.732,0.104-3.062c0.022-0.365,0.046-0.738,0.065-1.106
		c2.337-35.287,27.969-240.438,30.098-256.567c16.693-126.616,23.9-210.53,23.9-210.53V994.732H785.572z"/>
	<path style="fill:#F7A291;" d="M1090.085,2172.631c-31.956-18.656-61.341-36.877-63.127-52.255c0,0,32.157-203.829,33.483-308.981
		c1.109-88.187-14.854-133.57-9.445-185.563c0.025-0.144,0.054-0.269,0.079-0.414c2.688-25.185,28.851-190.343,28.851-353.774
		c0-105.724-21.287-228.544-35.872-276.911H819.339l-6.011,88.511l103.583,85.003c0,0,7.207,83.913,23.899,210.53
		c2.124,16.129,27.756,221.28,30.093,256.567c0.025,0.368,0.049,0.741,0.071,1.106c0.079,1.329,0.114,2.383,0.103,3.062
		c0.033,0.264,0.049,0.515,0.082,0.771c2.307,56.095-15.296,85.019-9.535,169.872c6.03,88.808,27.677,320.435,27.677,320.435
		c-1.117,14.25-8.489,27.228-0.226,38.871c6.774,9.552,27.732,11.965,38.285,14.364c20.686,4.698,39.241,13.971,61.188,16.374
		c8.598,0.94,12.964,1.569,17.036-7.89C1107.142,2188.683,1090.085,2172.631,1090.085,2172.631z"/>
	<path style="fill:#0C1E3D;" d="M798.798,2118.214c-0.419,11.935-6.771,21.377-61.618,54.417
		c-8.032,4.837-24.191,15.794-25.03,19.637c-2.465,11.249,15.876,12.009,24.474,11.063c21.947-2.397,42.022-12.065,62.708-16.766
		c10.554-2.394,32.781-6.354,40.576-15.086c8.008-8.971,6.36-24.496,1.662-38.206c-2.737-7.999-2.092-17.445-2.092-17.445
		C821.633,2131.205,798.798,2118.214,798.798,2118.214z"/>
	<path style="fill:#0C1E3D;" d="M1027.799,2118.214c0.419,11.935,6.773,21.377,61.618,54.417
		c8.032,4.837,24.191,15.794,25.032,19.637c2.463,11.249-15.878,12.009-24.476,11.063c-21.944-2.397-42.022-12.065-62.708-16.766
		c-10.554-2.394-32.781-6.354-40.576-15.086c-8.008-8.971-6.36-24.496-1.662-38.206c2.737-7.999,2.092-17.445,2.092-17.445
		C1004.964,2131.205,1027.799,2118.214,1027.799,2118.214z"/>
	<g>
		<path style="fill:#081B39;" d="M882.663,248.216c-13.297-5.613-19.917-26.076-19.288-39.056
			c0.849-17.507,14.544-29.869,31.027-33.984c11.455-2.857,25.119-4.075,36.844-1.893c10.282,1.915,25.122,4.35,32.367,12.458
			c5.567,6.223,6.101,18.109,4.796,25.88c-2.819,16.774-16.954,32.895-29.747,43.185L882.663,248.216z"/>
		<g>
			<g>
				<path style="fill:#081B39;" d="M859.892,203.786c3.692-12.991,14.909-24.101,26.726-30.005
					c5.897-2.946,12.758-4.446,19.313-3.448c3.46,0.527,6.559,1.969,9.42,3.935c2.765,1.9,4.621,4.49,7.827,5.732
					c0.908,0.352,1.642-0.665,1.467-1.467c-1.468-6.738-10.517-10.339-16.537-11.731c-7.095-1.64-14.495,0.003-20.986,2.966
					c-13.697,6.253-24.113,19.455-27.326,33.992C859.782,203.822,859.874,203.848,859.892,203.786L859.892,203.786z"/>
			</g>
		</g>
		<g>
			<g>
				<path style="fill:#081B39;" d="M964.606,237.184c7.879-12.065,12.555-27.076,7.311-41.064
					c-3.508-9.358-14.41-20.212-25.323-18.325c-0.958,0.166-1.033,1.563-0.261,1.999c4,2.26,8.584,3.105,12.535,5.608
					c4.698,2.975,7.955,7.769,9.933,12.874c2.461,6.352,2.937,13.203,1.831,19.891c-1.099,6.647-4.313,12.555-6.208,18.94
					C964.391,237.219,964.546,237.276,964.606,237.184L964.606,237.184z"/>
			</g>
		</g>
		<g>
			<g>
				<path style="fill:#081B39;" d="M977.607,204.16c-1.596-14.183-8.891-29.157-23.26-33.971c-6.371-2.134-13.519-2.363-20.145-1.74
					c-5.171,0.486-11.944,1.529-15.158,6.062c-0.323,0.455,0.212,1.134,0.73,0.949c4.84-1.73,9.253-3.58,14.428-4.182
					c6.085-0.708,12.38-0.195,18.287,1.38c13.181,3.516,21.76,19.274,25.02,31.514C977.524,204.226,977.614,204.216,977.607,204.16
					L977.607,204.16z"/>
			</g>
		</g>
	</g>
	<path style="fill:#F7A291;" d="M984.179,413.499c-12.651,27.974-19.161,152.589-17.355,179.582
		c-15.56,26.602-62.539,20.824-66.191,15.225c-2.974-4.573,24.959-103.61,5.997-130.544c-16.205-23.019-24.422-32.323-12.477-44.174
		c21.481-21.299,50.7-27.682,78.404-34.611L984.179,413.499z"/>
	<path style="fill:#FDE3DB;" d="M1018.882,578.542c34.734,3.742,54.976,9.298,59.505,22.81
		c5.12,15.263-47.039,167.818-63.291,251.811c-9.941,51.38,30.267,124.849,29.322,133.469c-1.4,12.831-177.902,77.105-258.83,0.003
		c-7.92-7.541,41.715-117.636,42.164-146.142c1.068-67.844-30.972-45.331-38.857-97.207c-9.296-61.15,31.885-138.666,37.918-143.966
		c0,0,14.032-7.724,23.21-9.41c18.202-3.339,15.633,19.88,33.718,24.645c27.933,7.359,56.141,12.678,85.12,12.787L1018.882,578.542z
		"/>
	<path style="fill:#DAD6D2;" d="M1015.096,853.164c13.101-67.7,49.507-179.887,60.467-228.881
		c-9.982,0.223-19.82,1.076-29.235,4.085c0,0,0,0.008-0.008,0.014c-24.537,29.804-30.959,62.776-34.984,100.184
		c-3.96,36.749-29.717,68.174-65.273,68.174c0,0,40.527,10.57,61.179,1.28c0,0-5.412,117.089,35.055,191.456
		c1.302-1.106,2.037-2.07,2.122-2.844C1045.364,978.012,1005.155,904.544,1015.096,853.164z"/>
	<path style="fill:#F7A291;" d="M966.755,533.543c3.181,26.512,43.444,45.01,52.126,44.999c0,0,0.662,7.294-4.581,18.681
		c-4.589,9.979-26.776,78.6-102.104,78.6c-75.32,0-81.168-86.863-62.174-85.912c22.459,1.127,57.882-26.144,61.014-48.886
		c2.048-14.857,18.945-2.925,34.156-5.444L966.755,533.543z"/>
	<path style="fill:#DAD6D2;" d="M910.879,487.488c9.271,1.923,20.116-0.109,30.22,2.239c22.295,5.177,27.396,36.79,27.396,36.79
		c2.694-44.46,8.078-96.2,15.683-113.018l-11.622-14.522c-27.704,6.929-56.923,13.313-78.404,34.611
		c-11.946,11.85-3.728,21.154,12.477,44.174C908.468,480.371,909.852,483.675,910.879,487.488z"/>
	<g>
		<path style="fill:#4661A2;" d="M914.918,986.635H785.589c-46.072,110.872-78.739,970.31-78.739,970.31
			s137.516,57.083,190.787,4.263l16.777-657.728L914.918,986.635z"/>
		<path style="fill:#4E6CB3;" d="M785.589,986.635l258.83-0.003c69.786,79.833,77.761,970.313,77.761,970.313
			s-139.984,50.811-190.792,4.263l-16.766-657.728L785.589,986.635z"/>
	</g>
	<g>
		<path style="fill:#F7A291;" d="M1129.133,871.12c34.865-19.038,44.089,22.532,54.444,45.966
			c14.067,31.811,79.681,155.584,86.493,163.265c6.803,7.672,13.187,17.003,24.457,23.804c13.013,7.857,22.521,16.2,30.387,29.145
			c2.917,4.788,7.195,14.579,4.475,17.128c-4.788,4.489-8.056,0.088-13.041-7.857c-1.362-2.179-7.315-7.182-9.827-11.753
			c3.77,15.244,24.692,35.175,27.906,53.913c1.953,11.371,0.063,19.008-12.52,20.133c-15.402,1.378-16.135-11.523-26.792-18.689
			c-4.292-2.884-13.705-3.105-22.412-17.592c-4.867-8.108-9.698-18.414-12.378-27.353c-3.421-11.406-7.474-26.922-11.409-35.208
			c-3.936-8.29-103.6-133.218-116.762-162.725C1116.558,908.348,1115.114,878.773,1129.133,871.12z"/>
		<path style="fill:#F7A291;" d="M1060.738,595.489c57.628-6.229,56.729,101.728,66.714,137.549
			c9.521,34.148,25.689,110.373,37.033,143.758c7.019,20.639,15.617,32.896-2.816,47.872c-18.43,14.974-33.481,4.205-39.173-8.887
			c-19.904-45.797-71.156-214.861-79.49-257.245C1033.952,612.497,1060.738,595.489,1060.738,595.489z"/>
	</g>
	<g>
		<g>
			<path style="fill:#F7A291;" d="M989.389,315.428c-15.705-37.027-46.383-41.633-46.383-41.633
				c-6.234-1.443-12.479-2.555-18.656-3.281v-0.692c-1.231,0.077-2.468,0.213-3.704,0.324c-1.234-0.112-2.473-0.248-3.701-0.324
				v0.692c-6.177,0.727-12.423,1.838-18.657,3.281c0,0-30.676,4.606-46.382,41.633c-10.017,23.613-4.851,34.562-3.459,56.79
				c1.321,21.165,0.624,25.408,4.447,42.613c4.876,21.938,23.325,40.146,42.243,53.837c8.759,5.752,17.327,7.945,25.509,7.566
				c8.187,0.379,16.753-1.814,25.515-7.566c18.915-13.691,37.365-31.899,42.24-53.837c3.824-17.205,3.127-21.448,4.448-42.613
				C994.239,349.991,999.406,339.042,989.389,315.428z"/>
		</g>
	</g>
	<g>
		<g>
			<g>
				<g>
					<path style="fill:#00001E;" d="M878.653,377.453c-2.51-5.739-11.664-0.853-8.411,4.701
						C873.4,387.546,881.051,382.936,878.653,377.453L878.653,377.453z"/>
				</g>
			</g>
			<g>
				<g>
					<path style="fill:#00001E;" d="M951.732,377.453c-2.443-5.746-11.672-0.87-8.409,4.701
						C946.494,387.569,954.063,382.938,951.732,377.453L951.732,377.453z"/>
				</g>
			</g>
			<g>
				<g>
					<path style="fill:#1B2E50;" d="M934.678,363.063c4.316,0.148,7.614-3.197,12.132-3.007c4.528,0.19,9.142,3.781,13.527,1.964
						c1.536-0.637,2.364-2.152,1.519-3.733c-2.399-4.489-10.268-6.114-15.046-6.008c-5.122,0.113-12.393,3.224-13.957,8.389
						C932.485,361.882,933.479,363.022,934.678,363.063L934.678,363.063z"/>
				</g>
			</g>
			<g>
				<g>
					<path style="fill:#1B2E50;" d="M888.725,360.668c-1.487-4.919-8.026-7.803-12.864-8.281c-5.003-0.495-13.602,1.16-16.136,5.9
						c-0.845,1.581-0.017,3.097,1.519,3.733c3.935,1.631,8.376-1.15,12.375-1.817c5.072-0.846,8.537,3.023,13.281,2.86
						C888.099,363.022,889.092,361.882,888.725,360.668L888.725,360.668z"/>
				</g>
			</g>
		</g>
		<path style="fill:#F79983;" d="M974.205,391.626c-13.708-7.4-46.173,17.652-24.673,29.548
			C971.024,433.07,987.912,399.026,974.205,391.626z"/>
		<path style="fill:#F79983;" d="M849.468,391.18c0.452,7.552,1.111,13.231,3.426,23.651c0.444,1.999,1.035,3.952,1.695,5.886
			c5.115,3.328,11.591,4.317,18.561,0.457C894.145,409.555,863.674,385.402,849.468,391.18z"/>
		<g>
			<g>
				<g>
					<path style="fill:#BDB7B2;" d="M889.056,362.886c1.319,2.533,2.945,4.874,4.329,7.375c1.548,2.799,2.576,5.745,3.799,8.684
						c0.114,0.274,0.594,0.277,0.566-0.077c-0.463-5.938-4.568-11.896-8.638-16.026C889.083,362.812,889.038,362.85,889.056,362.886
						L889.056,362.886z"/>
				</g>
			</g>
			<g>
				<g>
					<path style="fill:#BDB7B2;" d="M900.97,391.76c0.664,7.541-2.115,13.799-2.989,21.058c-0.575,4.773,7.76,4.993,10.667,3.881
						c0.255-0.098,0.159-0.493-0.115-0.417c-2.212,0.617-9.336,0.457-9.225-3.464c0.066-2.343,0.918-4.726,1.509-6.975
						c1.256-4.779,1.438-9.276,0.507-14.131C901.286,391.513,900.952,391.557,900.97,391.76L900.97,391.76z"/>
				</g>
			</g>
		</g>
		<g>
			<path style="fill:#F0EFEE;" d="M896.73,430.759c20.326,4.36,40.652-5.668,40.652-5.668
				c-4.055,12.079-31.672,21.391-35.355,11.793C900.774,433.61,896.73,430.759,896.73,430.759z"/>
		</g>
		<g>
			<g>
				<g>
					<path style="fill:#DAD6D2;" d="M915.421,457.435c2.95-1.635,5.825-1.967,9.111-2.188c0.698-0.047,0.875-0.854,0.339-1.25
						c-3.357-2.48-7.809-0.34-10.488,2.092C913.642,456.76,914.588,457.897,915.421,457.435L915.421,457.435z"/>
				</g>
			</g>
		</g>
	</g>
	<g>
		<g>
			<path style="fill:#22385D;" d="M1058.303,598.024c-8.713-21.669-26.367-38.057-36.564-59.178
				c-12.112-25.092-11.622-45.759-4.091-71.935c5.665-19.675,12.558-56.525,11.779-76.805c-0.692-17.921-4.483-22.949-7.937-61.918
				c-1.969-22.178-17.831-73.384-71.42-83.954c-40.14-7.92-85.439-1.457-111.928,32.645
				c-38.588,49.672-14.836,108.929-18.411,164.959c-1.626,25.482-16.265,39.405-25.127,62.136
				c-8.623,22.11-5.755,43.365,5.561,63.519c10.609,18.896,20.95,33.527,12.73,56.545c-8.53,23.875-31.648,39.491-27.647,67.732
				c3.26,22.993,26.029,43.961,49.744,38.699c57.808-12.815,29.417-90.502,38.966-128.455c5.856-23.292,16.592-42.164,6.907-66.311
				c-11.096-27.674-9.663-57.35-23.676-83.625c-8.4-15.75-7.858-32.615-6.697-50.247c2.949-44.879,23.597-83.439,65.673-102.858
				c42.006-19.387,62.773,39.631,70.007,83.554c2.912,0.343,4.614,19.37,4.437,28.009c-0.414,20.13-11.706,36.686-19.18,54.717
				c-8.753,21.127-15.843,42.229-6.683,64.208c7.392,17.742,20.849,32.672,27.154,50.98c8.479,24.621-7.365,42.611-14.666,65.219
				c-5.357,16.576-3.069,38.405,13.711,47.655c20.631,11.376,61.299,0.139,68.585-23.406
				C1066.689,646.771,1067.512,620.935,1058.303,598.024z"/>
			<g>
				<path style="fill:#F7A291;" d="M986.172,382.526c3.712-15.072,26.92-28.712,29.894-5.011
					c2.451,19.523-20.054,59.837-30.12,22.982L986.172,382.526z"/>
			</g>
		</g>
		<g>
			<g>
				<path style="fill:#22385D;" d="M860.73,409.602c1.843-5.045,2.149-9.975,2.974-15.277c0.856-5.507,1.92-10.982,3.278-16.387
					c3.046-12.12,7.749-24.142,14.541-34.669c7.478-11.587,17.182-21.227,27.689-30.064c5.928-4.985,12.398-9.381,19.005-13.41
					c3.53-2.152,7.172-4.115,10.851-5.996c4.07-2.08,8.599-3.816,11.839-7.131c1.83-1.872,0.532-5.197-2.144-5.176
					c-8.187,0.064-16.796,5.99-23.636,10.018c-6.971,4.105-13.502,8.849-19.671,14.073c-11.214,9.497-20.253,21.494-27.407,34.279
					c-6.368,11.38-11.452,23.316-14.824,35.926c-2.764,10.337-6.083,23.304-3.166,33.813
					C860.156,409.952,860.616,409.913,860.73,409.602L860.73,409.602z"/>
			</g>
		</g>
		<g>
			<g>
				<path style="fill:#22385D;" d="M929.187,292.887c2.309,3.428,5.671,5.023,8.805,7.629c3.753,3.12,6.945,6.883,9.736,10.868
					c5.698,8.136,9.708,17.226,12.821,26.622c3.24,9.779,5.381,19.909,7.122,30.049c1.694,9.865,2.244,20.425,5.591,29.906
					c0.528,1.494,2.454,1.128,2.636-0.357c1.252-10.217-0.795-21.066-2.493-31.13c-1.86-11.025-4.378-21.956-8.009-32.539
					c-3.27-9.531-7.588-19.056-13.879-26.99c-4.737-5.974-13.197-15.94-21.601-15.329
					C929.324,291.658,928.802,292.316,929.187,292.887L929.187,292.887z"/>
			</g>
		</g>
		<g>
			<g>
				<path style="fill:#22385D;" d="M827.323,308.078c-8.116,11.502-8.737,28.06-10.148,41.616
					c-1.939,18.644-2.767,37.411-3.727,56.126c-0.325,6.326-0.667,12.653-0.955,18.98c-0.628,13.807-3.694,27.359-6.706,40.801
					c-5.678,25.336-11.449,53.519-0.886,78.417c0.547,1.288,2.482,0.341,2.18-0.919c-3.161-13.218-4.49-25.985-3.197-39.545
					c1.287-13.504,4.59-26.78,7.469-40.007c2.742-12.6,5.196-25.27,5.894-38.17c0.333-6.165,0.281-12.367,0.404-18.54
					c0.356-17.865,1.125-35.699,2.732-53.5c0.799-8.857,1.832-17.706,3.461-26.452c1.118-6.003,1.91-12.664,4.338-18.306
					C828.433,307.995,827.699,307.545,827.323,308.078L827.323,308.078z"/>
			</g>
		</g>
		<g>
			<g>
				<path style="fill:#22385D;" d="M979.036,447.065c-5.178,12.96-12.079,25.121-16.789,38.321
					c-4.58,12.834-7.049,26.545-5.189,40.136c1.952,14.26,9.045,27.415,13.467,40.959c5.006,15.33,0.279,30.828,1.992,46.367
					c0.127,1.156,1.654,1.44,2.05,0.278c4.439-13.031,6.245-27.879,3.811-41.448c-2.603-14.511-11.67-26.731-15.553-40.78
					c-4.075-14.744-1.118-30.16,3.743-44.32c2.218-6.461,4.816-12.798,7.348-19.141c2.604-6.523,4.337-13.307,6.077-20.107
					C980.157,446.694,979.268,446.484,979.036,447.065L979.036,447.065z"/>
			</g>
		</g>
		<g>
			<g>
				<path style="fill:#22385D;" d="M1006.901,300.617c9.561,14.41,13.768,31.368,16.461,48.246
					c3.176,19.904,3.499,39.984,3.243,60.095c-0.524,41.238-17.1,90.199,8.07,127.35c3.561,5.256,7.745,10.508,13.444,13.481
					c1.409,0.735,3.136-0.779,2.244-2.244c-3.082-5.061-7.216-9.318-10.387-14.336c-3.319-5.254-5.883-11.05-7.839-16.934
					c-3.75-11.281-4.592-23.279-4.493-35.09c0.182-21.661,4.261-43.067,4.973-64.698c0.628-19.079-0.887-38.139-3.157-57.076
					c-2.126-17.743-5.129-36.918-14.512-52.468c-1.775-2.942-4.475-5.239-7.436-6.938
					C1007.139,299.79,1006.646,300.232,1006.901,300.617L1006.901,300.617z"/>
			</g>
		</g>
	</g>
</g>
</svg>
