<?xml version="1.0" encoding="utf-8"?>
<!-- Generator: Adobe Illustrator 27.5.0, SVG Export Plug-In . SVG Version: 6.00 Build 0)  -->
<svg version="1.1" id="Capa_1" xmlns="http://www.w3.org/2000/svg" xmlns:xlink="http://www.w3.org/1999/xlink" x="0px" y="0px"
	 viewBox="0 0 1898 2372" style="enable-background:new 0 0 1898 2372;" xml:space="preserve">
<g>
	<path style="fill:#FBC4B2;" d="M842.98,2025.353c3.475,13.8-0.79,42.556-0.79,42.556c-1.659,14.277-28.944,31.196-58.614,48.521
		c0,0-15.838,14.904-14.391,18.267c3.78,8.786,7.836,8.198,15.818,7.327c20.378-2.233,37.604-10.842,56.814-15.203
		c9.802-2.228,29.262-4.469,35.548-13.337c7.672-10.81,0.828-22.862-0.21-36.093l3.802-61.31L842.98,2025.353z"/>
	<path style="fill:#0C1E3D;" d="M828.024,2110.977c-10.853,3.903-33.004,13.887-44.443,5.452
		c-12.518,7.4-22.462,14.664-23.24,18.235c-2.291,10.442,14.74,11.147,22.723,10.271c20.378-2.228,39.021-11.202,58.228-15.568
		c9.799-2.226,31.386-5.145,37.675-14.008c6.732-9.491,4.668-23.975-1.204-33.173
		C866.209,2097.819,845.763,2104.604,828.024,2110.977z"/>
	<path style="fill:#FBC4B2;" d="M1020.506,2025.353c-3.478,13.8,0.784,42.556,0.784,42.556
		c1.661,14.277,28.946,31.196,58.614,48.521c0,0,15.84,14.904,14.391,18.267c-3.778,8.786-7.831,8.198-15.816,7.327
		c-20.378-2.233-37.607-10.842-56.813-15.203c-9.803-2.228-29.262-4.469-35.551-13.337c-7.67-10.81-0.825-22.862,0.215-36.093
		l-3.807-61.31L1020.506,2025.353z"/>
	<path style="fill:#0C1E3D;" d="M1035.458,2110.977c10.851,3.903,33.007,13.887,44.444,5.452c12.515,7.4,22.461,14.664,23.24,18.235
		c2.29,10.442-14.74,11.147-22.723,10.271c-20.378-2.228-39.021-11.202-58.228-15.568c-9.799-2.226-31.387-5.145-37.675-14.008
		c-6.733-9.491-4.671-23.975,1.206-33.173C997.273,2097.819,1017.719,2104.604,1035.458,2110.977z"/>
	<path style="fill:#0C1E3D;" d="M821.995,1549.054c6.994,41.077,21.102,48.335,52.835,50.204
		c31.726,1.871,17.599-4.976,21.443-37.122c-0.275-15.78,26.024-269.169,28.102-284.944c15.5-117.568,22.194-195.479,22.194-195.479
		V981.351H828.515c-13.541,44.915-33.31,98.202-33.31,196.365C795.205,1329.46,819.5,1525.664,821.995,1549.054z"/>
	<path style="fill:#0C1E3D;" d="M862.271,1509.747c-23.039-2.882-40.826,34.383-40.826,34.383c6.754,50.56-9.214,92.73-8.146,177.61
		c1.228,97.632,26.754,324.928,26.754,324.928c15.277,2.813,33.737,9.587,46.87-6.03c0,0,12.529-237.602,18.128-320.061
		c5.6-82.459-12.583-108.012-8.443-165.163C894.586,1520.854,880.184,1511.98,862.271,1509.747z"/>
	<path style="fill:#122444;" d="M1043.683,1549.054c-6.991,41.077-21.102,48.335-52.832,50.204
		c-31.732,1.871-17.599-4.976-21.445-37.122c0.275-15.78-26.024-269.169-28.105-284.944
		c-15.497-117.568-22.192-195.479-22.192-195.479l-96.177-78.935l5.583-21.426h208.651c13.542,44.915,33.307,98.202,33.307,196.365
		C1070.472,1329.46,1046.181,1525.664,1043.683,1549.054z"/>
	<path style="fill:#122444;" d="M1003.407,1509.747c23.039-2.882,40.829,34.383,40.829,34.383
		c-6.757,50.56,9.211,92.73,8.146,177.61c-1.234,97.632-26.754,324.928-26.754,324.928c-15.279,2.813-33.737,9.587-46.873-6.03
		c0,0-12.529-237.602-18.128-320.061c-5.6-82.459,12.585-108.012,8.443-165.163C971.092,1520.854,985.494,1511.98,1003.407,1509.747
		z"/>
	<path style="fill:#4863A6;" d="M850.87,592.329c-54.311,0.032-67.071,99.574-76.728,132.725
		c-9.211,31.599-23.355,75.005-34.252,105.882c-6.739,19.087-15.381,26.46,5.921,39.969c32.713,20.742,47.355,2.263,52.783-9.83
		c18.98-42.305,71.726-174.804,79.923-214.065C887.418,604.362,850.87,592.329,850.87,592.329z"/>
	<g>
		<path style="fill:#ED9062;" d="M859.624,269.256c-22.835,31.457-28.083,94.71-28.083,122.953
			c0,54.088,12.659,106.318,30.046,157.382c35.638,104.664,94.631,186.666,183.7,251.035
			c60.502,43.724,182.619,87.079,235.029-8.716c31.749-58.034-4.914-170.635-108.317-241.633
			c-56.122-38.533-53.665-119.407-73.648-183.041c-16.48-52.472-51.318-89.396-87.266-118.446
			C997.347,237.689,876.294,246.288,859.624,269.256z"/>
		<g>
			<g>
				<path style="fill:#ED9062;" d="M1069.212,316.124c26.317,35.884,37.342,79.399,49.799,121.409
					c6.158,20.767,13.043,41.412,23.105,60.655c9.393,17.963,22.742,37.706,41.007,47.603c1.19,0.645,2.403,1.254,3.612,1.86
					c1.098,0.551,2.268-0.82,1.342-1.74c-15.708-15.6-30.215-31.083-40.963-50.646c-10.651-19.384-17.961-40.449-24.75-61.429
					c-13.019-40.232-22.926-84.684-51.858-117.103c-0.287-0.315-0.573-0.631-0.86-0.946
					C1069.438,315.558,1069.025,315.868,1069.212,316.124L1069.212,316.124z"/>
			</g>
		</g>
		<g>
			<g>
				<path style="fill:#ED9062;" d="M1127.008,498.709c4.915,20.923,21.465,37.93,37.002,51.804
					c17.599,15.715,37.32,28.747,54.696,44.738c17.088,15.725,32.384,33.252,45.653,52.307c13.509,19.398,24.778,40.2,36.661,60.601
					c0.616,1.058,2.046,0.131,1.594-0.932c-17.923-42.123-44.282-80.164-77.704-111.467c-16.944-15.869-36.147-28.715-53.936-43.552
					c-18.19-15.172-33.003-32.307-42.956-53.925C1127.748,497.69,1126.87,498.122,1127.008,498.709L1127.008,498.709z"/>
			</g>
		</g>
		<g>
			<g>
				<path style="fill:#ED9062;" d="M846.103,304.045c-4.757,9.244-5.921,20.401-7.442,30.605
					c-1.696,11.378-2.722,22.848-3.361,34.331c-1.375,24.72-0.192,49.492,1.692,74.15c1.736,22.718,4.659,45.375,8.857,67.77
					c3.354,17.893,7.528,35.705,14.054,52.728c13.973,36.447,29.258,72.455,47.481,107c18.074,34.26,39.484,69.633,68.329,95.943
					c0.884,0.807,2.529-0.294,1.74-1.342c-17.031-22.603-34.129-44.959-48.869-69.171c-14.915-24.499-27.998-50.09-39.925-76.161
					c-10.624-23.222-21.552-46.995-29.27-71.37c-5.843-18.45-9.637-37.565-12.763-56.639c-5.222-31.86-7.888-64.093-7.828-96.378
					c0.03-15.995,0.712-32.023,2.342-47.938c0.771-7.533,1.836-15.031,3.17-22.484c1.235-6.902,3.153-13.557,3.599-20.555
					C847.97,303.578,846.538,303.201,846.103,304.045L846.103,304.045z"/>
			</g>
		</g>
	</g>
	<path style="fill:#4E6CB3;" d="M1029.213,573.038c32.25,3.472,51.043,8.628,55.251,21.182
		c4.75,14.171-43.675,155.818-58.767,233.808c-9.233,47.707,28.244,139.665,27.37,147.67
		c-1.302,11.91-161.285,102.439-236.432,30.85c-7.348-7.002,28.938-143.464,29.355-169.929c0.992-62.997-23-62.443-30.327-110.613
		c-8.633-56.784,29.608-128.754,35.208-133.676c0,0,13.027-7.172,21.555-8.734c16.9-3.105,14.511,18.457,31.308,22.88
		c25.937,6.836,52.124,11.774,79.03,11.872L1029.213,573.038z"/>
	<path style="fill:#DAD6D2;" d="M1025.696,828.027c12.169-62.882,45.99-167.105,56.152-212.569
		c-14.37-0.033-28.739-0.461-42.186,3.845c-0.003,0.003-0.003,0.006-0.003,0.006c-22.791,27.68-28.747,58.287-32.492,93.026
		c-3.674,34.121-27.59,63.302-60.599,63.302c0,0,37.629,9.813,56.806,1.185c0,0-6.387,137.104,48.365,201.169
		c0.8-0.929,1.263-1.71,1.326-2.293C1053.94,967.693,1016.463,875.734,1025.696,828.027z"/>
	<path style="fill:#FBC4B2;" d="M1029.213,573.038c-7.545,0.008-40.766-15.04-47.415-37.144
		c2.225-43.356,7.479-99.056,15.189-116.103l-10.79-13.482c-25.724,6.433-52.851,12.357-72.796,32.133
		c-11.099,11.004-3.464,19.643,11.581,41.02c7.743,10.998,7.062,34.954,4.104,58.699c0,0.013-0.008,0.027-0.011,0.044
		c-2.906,21.113-35.798,46.434-56.65,45.391c-17.638-0.888-12.213,79.771,57.726,79.771c69.942,0,90.543-63.721,94.808-72.98
		C1029.828,579.811,1029.213,573.038,1029.213,573.038z"/>
	<path style="fill:#FBC4B2;" d="M774.321,848.746c-32.163-18.055-41.18,20.446-51.048,42.087
		c-13.403,29.382-59.758,122.727-66.164,129.776c-6.403,7.054-12.43,15.653-22.967,21.843c-12.169,7.15-21.083,14.797-28.53,26.724
		c-2.756,4.42-6.839,13.462-4.338,15.859c4.396,4.219,7.482,0.169,12.19-7.158c1.291-2.005,6.869-6.588,9.252-10.802
		c-3.666,14.114-23.308,32.391-26.492,49.757c-1.934,10.532-0.267,17.646,11.409,18.825c14.286,1.443,15.102-10.524,25.073-17.063
		c4.018-2.634,12.76-2.731,21.002-16.09c4.608-7.468,9.203-16.987,11.788-25.262c3.301-10.553,7.233-24.915,10.976-32.568
		c3.742-7.648,81.727-101.69,94.268-128.94C785.597,883.45,787.253,856.007,774.321,848.746z"/>
	<path style="fill:#4E6CB3;" d="M1059.937,581.667c54.308,0.667,51.808,100.184,61.073,133.447
		c8.844,31.7,22.483,75.277,33.018,106.277c6.512,19.166,15.07,26.637-6.392,39.895c-32.947,20.359-47.379,1.711-52.66-10.447
		c-18.487-42.52-58.508-168.996-66.245-208.351C1020.326,599.737,1059.937,581.667,1059.937,581.667z"/>
	<path style="fill:#FBC4B2;" d="M1119.39,838.797c32.37-17.676,40.938,20.923,50.55,42.679
		c13.062,29.54,58.328,123.416,64.649,130.541c6.321,7.125,12.245,15.791,22.712,22.105c12.084,7.297,20.909,15.045,28.214,27.061
		c2.71,4.448,6.681,13.542,4.153,15.906c-4.445,4.167-7.479,0.079-12.106-7.297c-1.266-2.026-6.793-6.67-9.121-10.913
		c3.497,14.157,22.924,32.664,25.906,50.064c1.814,10.557,0.06,17.643-11.624,18.692c-14.302,1.277-14.979-10.698-24.877-17.357
		c-3.984-2.677-12.727-2.882-20.811-16.333c-4.519-7.523-9.002-17.093-11.494-25.395c-3.173-10.595-6.942-24.997-10.592-32.696
		c-3.655-7.694-80.534-102.635-92.757-130.034C1107.714,873.364,1106.374,845.902,1119.39,838.797z"/>
	<path style="fill:#DAD6D2;" d="M928.931,488.49c8.606,1.787,18.675-0.101,28.056,2.081c20.699,4.804,25.438,34.157,25.438,34.157
		c2.5-41.279,7.501-89.32,14.563-104.937l-10.79-13.482c-25.724,6.433-52.851,12.357-72.796,32.133
		c-11.099,11.004-3.464,19.643,11.581,41.02C926.692,481.885,927.977,484.952,928.931,488.49z"/>
	<g>
		<g>
			<path style="fill:#FBC4B2;" d="M873.193,331.658c-9.298,21.927-4.502,32.092-3.211,52.726c1.228,19.656,0.58,23.594,4.129,39.573
				c4.527,20.364,21.658,37.275,39.225,49.986c28.804,18.918,55.384-3.364,71.785-27.614c32.144-47.51,29.611-96.36,18.123-122.278
				c-16.156-37.463-51.976-39.157-86.983-31.049C916.26,293.003,887.777,297.276,873.193,331.658z"/>
		</g>
	</g>
	<g>
		<g>
			<g>
				<g>
					<path style="fill:#713927;" d="M887.22,390.079c-2.174-5.171-10.282-3.529-8.679,2.299
						C880.117,398.109,889.34,395.125,887.22,390.079L887.22,390.079z"/>
				</g>
			</g>
			<g>
				<g>
					<path style="fill:#713927;" d="M954.655,389.084c-2.261-5.336-10.839-0.81-7.807,4.365
						C949.794,398.479,956.813,394.177,954.655,389.084L954.655,389.084z"/>
				</g>
			</g>
			<g>
				<g>
					<path style="fill:#D06F44;" d="M938.823,375.72c4.007,0.138,7.07-2.968,11.266-2.791c4.205,0.178,8.489,3.513,12.561,1.825
						c1.425-0.591,2.195-1.999,1.41-3.466c-2.229-4.168-9.534-5.677-13.971-5.58c-4.756,0.104-11.508,2.992-12.96,7.788
						C936.787,374.623,937.71,375.682,938.823,375.72L938.823,375.72z"/>
				</g>
			</g>
			<g>
				<g>
					<path style="fill:#D06F44;" d="M896.158,373.496c-1.383-4.567-7.454-7.245-11.947-7.688c-4.646-0.458-12.63,1.079-14.984,5.48
						c-0.785,1.468-0.015,2.875,1.41,3.466c3.655,1.515,7.778-1.068,11.492-1.688c4.711-0.787,7.929,2.805,12.335,2.654
						C895.577,375.682,896.499,374.623,896.158,373.496L896.158,373.496z"/>
				</g>
			</g>
		</g>
		<path style="fill:#F9B4A4;" d="M975.526,402.245c-12.73-6.875-42.872,16.385-22.913,27.437
			C972.573,440.727,988.253,409.117,975.526,402.245z"/>
		<path style="fill:#F9B4A4;" d="M870.918,401.801c0.425,7.114,1.027,12.39,3.192,22.156c0.602,2.696,1.433,5.325,2.443,7.896
			c2.089-0.259,4.265-0.937,6.499-2.171C898.399,421.185,884.125,405.483,870.918,401.801z"/>
		<g>
			<g>
				<g>
					<path style="fill:#BDB7B2;" d="M896.461,375.56c1.226,2.352,2.736,4.526,4.021,6.848c1.438,2.599,2.394,5.333,3.531,8.061
						c0.106,0.254,0.552,0.258,0.526-0.071c-0.433-5.513-4.245-11.044-8.025-14.878C896.486,375.491,896.444,375.527,896.461,375.56
						L896.461,375.56z"/>
				</g>
			</g>
			<g>
				<g>
					<path style="fill:#BDB7B2;" d="M907.525,402.368c0.617,7.003-1.963,12.814-2.775,19.554c-0.534,4.43,7.205,4.634,9.902,3.599
						c0.237-0.091,0.148-0.458-0.107-0.387c-2.052,0.575-8.666,0.427-8.563-3.212c0.062-2.176,0.852-4.389,1.401-6.477
						c1.167-4.438,1.336-8.613,0.47-13.121C907.818,402.138,907.508,402.18,907.525,402.368L907.525,402.368z"/>
				</g>
			</g>
		</g>
		<g>
			<path style="fill:#F0EFEE;" d="M902.378,436.922c14.266,2.127,38.955-3.603,38.955-3.603
				c1.906,20.043-24.253,30.185-28.622,19.367C908.095,441.242,902.378,436.922,902.378,436.922z"/>
		</g>
		<g>
			<g>
				<g>
					<path style="fill:#DAD6D2;" d="M920.944,463.35c2.738-1.518,5.408-1.825,8.458-2.031c0.648-0.044,0.812-0.793,0.315-1.161
						c-3.115-2.303-7.251-0.317-9.737,1.941C919.293,462.723,920.17,463.779,920.944,463.35L920.944,463.35z"/>
				</g>
			</g>
		</g>
	</g>
	<g>
		<g>
			<path style="fill:#FBC4B2;" d="M997.573,392.291c5.161-13.46,28.124-23.339,28.124-1.163c0,18.27-25.397,52.81-30.406,17.695
				L997.573,392.291z"/>
		</g>
		<g>
			<g>
				<path style="fill:#ED9062;" d="M1034.75,282.168c-5.959-26.942-37.085-46.886-70.645-53.619
					c-33.56-6.73-103.291-0.466-117.165,75.985c-4.306,19.436,6.626,58.023,20.653,70.985c8.558-24.872,16.654-50.961,48.118-74.803
					c47.987,34.461,46.796,100.282,81.862,91.575c12.202-3.032,10.933-11.902,15.952-13.934
					C1027.456,372.722,1044.187,324.838,1034.75,282.168z"/>
			</g>
			<g>
				<g>
					<path style="fill:#ED9062;" d="M913.79,300.037c1.948,5.368,6.875,9.767,10.299,14.242c4.269,5.578,7.694,11.736,10.286,18.259
						c2.879,7.244,5.452,14.605,8.494,21.786c6.381,15.062,16.572,37.08,34.554,40.502c1.057,0.201,1.782-1.227,0.76-1.802
						c-17.208-9.685-26.348-26.786-33.387-44.575c-2.905-7.342-4.672-15.251-8.027-22.402c-2.69-5.733-6.052-10.969-9.925-15.969
						c-3.183-4.109-7.38-9.032-12.477-10.619C914.042,299.358,913.667,299.701,913.79,300.037L913.79,300.037z"/>
				</g>
			</g>
		</g>
	</g>
</g>
</svg>
