<?xml version="1.0" encoding="utf-8"?>
<!-- Generator: Adobe Illustrator 27.5.0, SVG Export Plug-In . SVG Version: 6.00 Build 0)  -->
<svg version="1.1" id="Capa_1" xmlns="http://www.w3.org/2000/svg" xmlns:xlink="http://www.w3.org/1999/xlink" x="0px" y="0px"
	 viewBox="0 0 1733 2599" style="enable-background:new 0 0 1733 2599;" xml:space="preserve">
<path style="fill:#2C5042;" d="M1270.925,1081.724c-1.724-4.869,3.401-12.21,2.26-18.243c-0.868-4.628-6.501-9.046-7.448-14.802
	c-2.089-12.622,3.977-23.149,3.464-36.26c-0.52-13.238-6.964-23.396-6.636-36.29c0.408-15.793,10.665-28.581,8-45.779
	c-2.744-17.739-11.808-31.872-13.661-50.317c-3.54-35.223-18.205-67.583-26.738-101.958c-7.637-30.776-7.968-65.351-22.881-93.985
	c-10.229-19.626-21.937-35.599-30.098-56.568c-16.074-41.247-41.419-97.149-84.372-119.867
	c-5.335-6.797-11.107-13.093-17.375-18.572c-11.087-9.684-45.616-30.856-69.326-43.613c-6.012-3.272-36.601-40.741-45.216-45.416
	c-0.307,3.285-0.837,6.522-1.569,9.698c-2.122-7.486-4.475-15.102-7.015-22.835c6.729-7.347,12.188-15.233,15.501-23.476
	c4.326-10.762,7.686-22.552,7.67-34.017c-0.005-3.715,0.008-14.597,0.025-27.799c16.603,0.584,32.056-47.305,24.245-63.689
	c-6.562-13.811-16.96-8.801-23.701-3.273c0.605-2.196,1.472-6.381,1.152-11.533c7.443-15.749,8.291-36.013,6.879-53.137
	c6.739-6.994,11.792-17.104,13.584-24.024c4.923-19.002,2.569-41.481-2.296-60.071c-31.948,26.538-73.034-7.877-101.811-20.642
	c-31.472-13.961-68.482-16.663-95.157,7.761c-7.665,7.018-16.755,20.621-20.947,34.095c-8.184,2.057-15.975,5.69-21.134,9.128
	c-16.551,11.027-25.975,32.13-24.474,51.76c0.603,7.877,9.127,34.804,19.511,37.842c0.183,1.019-3.917,16.513,5.195,30.489v0.034
	c-6.766-5.65-17.697-11.34-24.34,2.992c-7.569,16.271,7.96,63.058,24.361,63.433c0.015,12.675,0.029,23.03,0.024,26.635
	c-0.016,11.464,3.344,23.255,7.67,34.017c3.309,8.232,8.758,16.108,15.475,23.447c-3.35,10.198-6.377,20.192-8.972,29.953
	c-1.796-5.4-3.025-11.019-3.563-16.787c-7.881,4.274-34.063,35.932-43.146,43.813c-0.868,0.802-1.536,1.336-2.07,1.603
	c-23.71,12.757-58.24,33.929-69.393,43.613c-7.519,6.589-14.329,14.361-20.523,22.764c-38.647,24.84-62.055,76.773-77.215,115.674
	c-8.16,20.97-19.869,36.943-30.098,56.568c-14.913,28.634-15.245,63.21-22.881,93.985c-8.533,34.374-23.198,66.735-26.737,101.958
	c-1.853,18.445-10.917,32.578-13.661,50.317c-2.664,17.199,7.593,29.986,8.001,45.779c0.328,12.893-6.116,23.051-6.637,36.29
	c-0.512,13.111,5.553,23.638,3.465,36.26c-0.948,5.756-6.58,10.174-7.449,14.802c-1.14,6.033,3.984,13.374,2.26,18.243
	c-4.156,11.751-17.185,16.785-15.533,31.046c5.695,2.988,15.494,6.679,27.426,10.279c-2.645,15.617-4.439,31.265-5.133,47.664
	c-1,23.336-3.364,45.396-1.137,68.643c2.133,22.345,6.489,47.019,3.421,69.371c-2.896,21.18-1.152,42.894,4.691,63.864
	c5.149,18.476,6.333,38.477,20.145,52.962c1.077,3.862,2.128,7.574,2.917,10.97c2.732,11.818,5.68,23.284,7.676,35.358
	c1.116,6.754,13.072,38.942,14.621,18.482c0.136-1.773,0.151-3.539,0.211-5.32c3.12,3.923,6.592,7.393,10.136,9.873
	c12.31,8.565,14.273,1.383,11.945-7.243c5.076,4.215,10.808,7.484,15.317,7.89c9.068,0.788,9.055-5.463,5.568-11.571
	c3.02,1.142,5.848,1.562,7.72,0.323c9.732-6.379-8.276-14.396-12.392-16.816c-18.389-10.864-30.886-26.289-39.347-44.186
	c0.324-3.058,0.768-6.131,1.408-9.242c2.284-10.984,4.748-22.119,8.936-32.623c5.592-13.945,11.777-17.199,21.59-5.034
	c7.496,9.271,12.901,19.964,20.11,29.663c5.716,7.679,24.489,22.029,22.98,3.328c-1.619-19.872-19.317-36.206-24.665-55.486
	c-3.056-11.074-7.292-20.391-13.273-30.203c-15.945-26.162-14.789-50.731-10.392-79.944c4-26.522,14.417-49.708,21.282-75.465
	c2.871-10.78,5.083-21.734,6.599-32.773c6.795-1.451,12.21-3.906,15.601-7.626c-19.657-22.217,20.721-30.429-1.7-49.048
	c30.158-19.918,20.745-89.988,26.462-120.719c1.837-9.861,4.846-19.258,8.471-28.597c4.538,47.01,7.013,94.128,4.699,142.536
	c-5.009,104.859-12.69,209.583-24.378,313.84c-7.147,63.65-17.698,127.366-35.599,188.544c0,0.945,19.307,5.059,37.801,8.751
	c-1.362,53.06-7.345,103.835,0.016,157.223c8.828,64.015,8.028,128.32,13.71,192.483c7.193,81.213,25.149,160.755,26.781,242.502
	c0.24,12.018,2.139,24.219,1.187,36.259c-0.557,7.034-4.344,15.683-3.388,22.681c1.291,9.437,9.941,15.353,11.57,24.759
	c1.407,8.116-2.051,15.099-1.095,23.09c0.483,4.035,3.616,7.755,3.747,12.191c0.076,2.596-2.533,7.631-1.926,9.911
	c2.328,8.735,5.053,6.847,13.844,6.446c1.836-0.084,3.671-0.196,5.505-0.328c-2.811,11.319-4.138,22.988-5.466,34.513
	c-0.897,8.168-1.6,16.239-3.35,24.117c-3.409,4.104-5.345,11.951-6.419,15.354c-4.335,13.734-6.344,28.17-10.548,41.999
	c-5.08,16.713-9.47,33.695-15.864,49.981c-3.999,10.187-9.038,21.722-1.509,31.605c10.943,14.368,30.355,17.696,46.757,21.863
	c10.672,2.712,21.197,6.065,31.92,8.56c8.345,1.941,17.516,5.379,26.178,4.931c18.204-0.943,29.451-17.877,33.015-34.233
	c3.488-16.013-0.766-31.635-2.209-47.553c-1.165-12.851-2.232-25.405-2.471-38.354c-0.155-8.474-0.737-17.312-3.04-25.489
	c-0.156-0.553-0.319-1.102-0.485-1.648c1.941-27.934-6.218-54.468-5.365-82.24c0.106-3.477,0.125-7.353-0.048-11.413
	c5.71-0.197,11.623-1.102,14.582-4.72c5.036-6.157-0.863-10.697,0.256-16.482c2.067-10.687,10.258-18.383,11.533-30.204
	c7.269-67.42,16.805-135.763,27.578-203.159c8.587-53.727,12.865-107.652,17.832-161.788
	c7.867-85.741,12.062-172.113,19.093-258.123c0.995-0.04,1.989-0.085,2.982-0.134c6.102,68.245,12.997,136.441,19.202,204.697
	c7.147,78.611,13.374,157.304,16.407,236.251c1.153,30.005,3.759,59.591,6.52,89.531c1.484,16.094-1.303,32.098,1.173,47.92
	c2.255,14.412,2.427,20.868-1.783,35.191c-2.281,7.757,1.477,12.783,2.03,20.18c0.247,3.311-2.876,10.243-1.594,12.755
	c1.454,2.846,6.209,4.131,12.343,4.546l-0.175,0.443c-4.201,10.348-7.998,20.5-9.388,30.318c-2.9,4.638-6.297,9.497-6.936,13.445
	c-1.375,8.507,0.236,15.682,5.105,22.83c7.784,11.427,19.021,20.343,27.821,30.971c15.219,18.382,27.481,38.582,37.958,60.01
	c13.033,26.652,26.494,54.134,61.04,40.92c17.328-6.628,41.785-24.016,49.961-41.191c1.745-3.664,3.153-8.549,3.085-13.049
	c2.657-2.316,5.004-5.904,4.907-9.342c-0.118-4.202-1.865-7.041-4.415-9.204c-12.797-10.854-23.232-13.247-32.312-28.365
	c-5.733-9.546-11.388-18.829-16.693-28.392c0.248-5.806-0.696-11.423-3.728-16.156c-0.961-1.499-2.109-2.431-3.331-3.195
	c-1.451-2.481-3.333-4.526-5.485-6.25c-4.708-12.243-7.229-25.3-8.387-38.37c1.841,0.112,3.737-0.106,5.768-0.863
	c8.212-3.058,3.448-4.113,6.162-11.363c2.822-7.541,11.021-9.795,13.313-18.077c3.235-11.69,1.413-23.733,5.466-35.657
	c5.658-16.649,2.339-32.782,4.048-50.007c8.161-82.257,19.891-166.275,23.559-249.241c2.159-48.844,9.289-97.259,13.392-145.95
	c5.318-63.105,14.245-126.586,21.844-190.226c27.203-2.707,64.075-6.517,63.501-8.46c-17.899-61.178-28.519-124.894-35.599-188.544
	c-11.688-104.257-19.435-208.981-24.378-313.84c-2.443-51.092,0.45-100.748,5.472-150.357c5.022,11.947,9.291,23.802,11.641,36.419
	c5.717,30.731-3.697,100.801,26.461,120.719c-22.42,18.619,17.958,26.831-1.7,49.048c3.392,3.72,8.807,6.175,15.601,7.626
	c1.516,11.039,3.728,21.993,6.599,32.773c6.865,25.756,17.282,48.943,21.282,75.465c4.396,29.213,5.552,53.782-10.393,79.944
	c-5.981,9.812-10.216,19.129-13.273,30.203c-5.348,19.28-23.045,35.614-24.665,55.486c-1.508,18.701,17.265,4.351,22.981-3.328
	c7.208-9.7,12.613-20.392,20.109-29.663c9.813-12.164,15.997-8.911,21.59,5.034c4.188,10.504,6.652,21.638,8.936,32.623
	c0.64,3.111,1.084,6.184,1.408,9.242c-8.46,17.896-20.957,33.322-39.347,44.186c-4.116,2.42-22.125,10.437-12.392,16.816
	c1.872,1.239,4.7,0.819,7.72-0.323c-3.487,6.108-3.499,12.359,5.568,11.571c4.509-0.406,10.241-3.675,15.318-7.89
	c-2.329,8.626-0.365,15.808,11.944,7.243c3.544-2.48,7.016-5.95,10.136-9.873c0.06,1.781,0.076,3.546,0.211,5.32
	c1.549,20.46,13.505-11.728,14.621-18.482c1.996-12.074,4.944-23.54,7.676-35.358c0.788-3.396,1.84-7.108,2.917-10.97
	c13.813-14.486,14.997-34.486,20.145-52.962c5.844-20.97,7.588-42.684,4.692-63.864c-3.068-22.353,1.288-47.027,3.421-69.371
	c2.229-23.247-0.136-45.307-1.137-68.643c-0.693-16.399-2.487-32.047-5.133-47.664c11.933-3.601,21.731-7.291,27.426-10.279
	C1288.11,1098.509,1275.081,1093.475,1270.925,1081.724z"/>
<path style="fill:#513027;" d="M765.3,2423.215c-0.155-8.474-0.737-17.312-3.04-25.489c-0.156-0.553-0.319-1.102-0.485-1.648
	c1.941-27.934-6.218-54.468-5.365-82.24c0.106-3.477,0.125-7.353-0.048-11.413c-3.9,0.134-7.705-0.062-10.41,0.049
	c-23.811,0.977-47.164,6.272-70.686,7.958c-2.811,11.319-4.138,22.988-5.466,34.513c-0.897,8.168-1.6,16.239-3.35,24.117
	c-3.409,4.104-5.345,11.951-6.419,15.354c-4.335,13.734-6.344,28.17-10.548,41.999c-5.08,16.713-9.47,33.695-15.864,49.981
	c-3.999,10.187-9.038,21.722-1.509,31.605c10.943,14.368,30.355,17.696,46.757,21.863c10.672,2.712,21.197,6.065,31.92,8.56
	c8.345,1.941,17.516,5.379,26.178,4.931c18.204-0.943,29.451-17.877,33.015-34.233c3.488-16.013-0.766-31.635-2.209-47.553
	C766.606,2448.719,765.539,2436.165,765.3,2423.215z"/>
<path style="fill:#513027;" d="M1077.894,2414.24c-0.118-4.202-1.865-7.041-4.415-9.204c-12.797-10.854-23.232-13.247-32.312-28.365
	c-5.733-9.546-11.388-18.829-16.693-28.392c0.248-5.806-0.696-11.423-3.728-16.156c-0.961-1.499-2.109-2.431-3.331-3.195
	c-1.451-2.481-3.333-4.526-5.485-6.25c-4.708-12.243-7.229-25.3-8.387-38.37c-3.155-0.192-6.147-1.357-9.374-2.467
	c-16.269-5.593-31.763-5.53-49.1-5.552c-5.64-0.008-26.642,3.535-40.555,2.595l-0.175,0.443c-4.201,10.348-7.998,20.5-9.388,30.318
	c-2.9,4.638-6.297,9.497-6.936,13.445c-1.375,8.507,0.236,15.682,5.105,22.83c7.784,11.427,19.021,20.343,27.821,30.971
	c15.219,18.382,27.481,38.582,37.958,60.01c13.033,26.652,26.494,54.134,61.04,40.92c17.328-6.628,41.785-24.016,49.961-41.191
	c1.745-3.664,3.153-8.549,3.085-13.049C1075.645,2421.266,1077.991,2417.678,1077.894,2414.24z"/>
<path style="fill:#333026;" d="M995.374,85.899c-31.948,26.538-73.034-7.877-101.811-20.642
	c-31.472-13.961-68.482-16.663-95.157,7.761c-7.665,7.018-16.755,20.621-20.947,34.095c-8.184,2.057-15.975,5.69-21.134,9.128
	c-16.551,11.027-25.975,32.13-24.474,51.76c0.603,7.877,9.127,34.804,19.511,37.842c0.183,1.019-3.917,16.513,5.195,30.489
	l0.005,0.008l0.001,0.001c-0.013,2.95-0.021,7.392-0.024,12.769c-0.001,3.201-0.002,6.734-0.001,10.482
	c0.001,2.533,0.002,5.163,0.004,7.855c0.001,1.094,0.002,2.199,0.002,3.311c0.008,10.678,0.021,22.072,0.034,32.033
	c0.015,12.675,0.029,23.03,0.024,26.635c-0.016,11.464,3.344,23.255,7.67,34.017c3.309,8.232,8.758,16.108,15.475,23.447
	c27.116,29.625,74.924,50.477,86.297,50.477c11.369,0,59.151-20.839,86.271-50.448c6.729-7.347,12.188-15.233,15.501-23.476
	c4.326-10.762,7.686-22.552,7.67-34.017c-0.005-3.715,0.008-14.597,0.025-27.799c0.012-10.06,0.026-21.467,0.034-32.077
	c0.001-1.111,0.002-2.212,0.002-3.304c0.002-2.576,0.003-5.088,0.003-7.507c0.001-3.89,0.001-7.536-0.001-10.801
	c-0.004-4.852-0.011-8.866-0.024-11.599h0.001c0,0,0.233-0.599,0.53-1.675c0.605-2.196,1.472-6.381,1.152-11.533
	c7.443-15.749,8.291-36.013,6.879-53.137c6.739-6.994,11.792-17.104,13.584-24.024
	C1002.593,126.968,1000.239,104.489,995.374,85.899z"/>
<path style="fill:#D98364;" d="M932.808,176.025c-16.493-10.263-32.398-13.855-50.957-7.523c-17.408,5.94-28.53,5.029-45.265,0.933
	c-13.543-3.315-30.252,0.358-41.197,9.344c-20.634,16.94-24.85,31.829-27.006,65.306c0.587,19.825,2.435,40.522,7.952,59.255
	c2.754,7.936,8.644,13.215,14.949,13.882c7.737,0.819,13.515-0.719,20.779-1.694c6.418-0.862,23.735-3.61,37.367-5.439
	c1.516,1.487,3.675,2.148,6.144,2.168c0.997-0.004,2.078-0.093,3.158-0.297c2.11,0.846,4.645,1.349,7.349,1.339
	c2.733-0.01,5.236-0.532,7.339-1.394c1.083,0.196,2.164,0.277,3.161,0.273c2.405-0.037,4.512-0.68,6.01-2.098
	c13.643,1.829,31.007,4.585,37.435,5.448c7.265,0.975,13.042,2.513,20.779,1.694c6.306-0.667,12.195-5.946,14.949-13.882
	c6.247-21.217,7.79-44.952,8.123-67.084C959.983,213.218,953.079,188.639,932.808,176.025z"/>
<path style="fill:#D98364;" d="M896.049,327.584c-8.693,3.54-17.355,7.883-30.005,7.886c-12.65-0.003-21.313-4.346-30.005-7.886
	c-14.844-6.044-23.657,15.623-13.837,27.228c4.924,5.82,8.751,9.546,18.628,11.731c6.437,1.425,18.685,3.26,25.214,2.832
	c6.53,0.428,18.778-1.407,25.215-2.832c9.877-2.186,13.703-5.911,18.628-11.731C919.706,343.207,910.893,321.54,896.049,327.584z"/>
<path style="fill:#D98364;" d="M999.756,237.937c-6.562-13.811-16.96-8.801-23.701-3.273c-0.296,1.075-0.53,1.675-0.53,1.675h-0.001
	c0.013,2.733,0.02,6.747,0.024,11.599c0.002,3.265,0.002,6.911,0.001,10.801c0,2.418-0.001,4.931-0.003,7.507
	c0,1.091-0.001,2.193-0.002,3.304c-0.008,10.611-0.021,22.017-0.034,32.077C992.114,302.21,1007.567,254.321,999.756,237.937z"/>
<path style="fill:#D98364;" d="M756.543,267.446c-0.002-2.692-0.003-5.322-0.004-7.855c-0.001-3.747-0.001-7.28,0.001-10.482
	c0.003-5.377,0.01-9.819,0.024-12.769l-0.001-0.001l-0.005-0.008v0.034c-6.766-5.65-17.697-11.34-24.34,2.992
	c-7.569,16.271,7.96,63.058,24.361,63.433c-0.012-9.961-0.026-21.355-0.034-32.033C756.544,269.645,756.543,268.54,756.543,267.446z
	"/>
<path style="fill:#D98364;" d="M745.953,2302.475c-23.811,0.977-47.164,6.272-70.686,7.958c-2.811,11.319-4.138,22.988-5.466,34.513
	c-0.897,8.168-1.6,16.239-3.35,24.117l-0.106,0.484c-0.406,1.626-0.711,3.252-1.22,4.777c12.097-9.454,27.955-11.792,47.575-7.014
	c17.993,4.269,38.832,17.179,48.489,34.867c0.254-2.041,0.447-4.073,0.587-6.099c1.941-27.934-6.218-54.468-5.365-82.24
	c0.106-3.477,0.125-7.353-0.048-11.413C752.463,2302.561,748.658,2302.365,745.953,2302.475z"/>
<path style="fill:#D98364;" d="M706.092,2479.029c1.932-4.879,4.269-9.86,7.015-14.74c-4.371-2.135-8.641-4.575-12.911-6.812
	c-15.756-8.437-30.699-16.57-49.201-20.127c-0.711,3.151-1.423,6.303-2.135,9.352c-1.526,6.812-3.355,13.622-5.795,20.229
	c-2.236,6.202-5.896,12.097-7.726,18.4c-1.016,3.457-2.033,8.641-0.508,12.097c2.338,5.49,8.843,7.726,14.333,8.031h0.712
	c2.745,7.421,12.91,11.385,20.229,7.421l0.509,0.915c4.066,6.201,14.232,8.946,21.347,5.997c0.508,0.915,1.016,1.729,1.728,2.44
	c2.237,2.44,5.388,3.66,8.844,3.761C697.959,2513.795,699.078,2497.124,706.092,2479.029z"/>
<path style="fill:#D98364;" d="M722.255,2468.864c-2.643,4.473-4.879,9.149-6.708,13.826c-7.727,20.026-10.674,31.717-2.542,40.662
	c8.132,13.825,34.868,11.487,45.237,1.627c4.777-4.677,7.014-11.589,7.522-18.095v-0.101c-0.204-1.119-0.508-2.236-0.915-3.354
	C759.155,2486.552,734.047,2474.354,722.255,2468.864z"/>
<path style="fill:#D98364;" d="M718.392,2455.649c9.962-14.536,23.381-26.736,38.121-29.785c2.44-23.686-24.905-43.61-46.152-48.692
	c-24.906-5.998-40.966,0.305-51.233,20.534c-0.61,2.847-1.322,5.693-2.034,8.641c-1.525,6.912-2.847,13.927-4.168,20.941
	c20.026,3.863,36.291,12.707,52.149,21.246C709.447,2450.973,713.818,2453.311,718.392,2455.649z"/>
<path style="fill:#D98364;" d="M758.444,2447.923c-0.406-4.168-0.61-8.132-0.711-12.097c-10.979,2.745-21.652,12.402-30.192,24.398
	c13.317,6.201,26.939,13.723,36.393,23.381c-0.407-3.456-0.813-6.913-1.423-10.369
	C761.087,2464.798,759.257,2456.462,758.444,2447.923z"/>
<path style="fill:#D98364;" d="M1001.294,2411.602c1.586,0.637,3.154,1.387,4.707,2.276c6.924,3.961,13.248,9.505,18.603,15.411
	c5.698,6.284,10.921,15.302,11.928,24.359c3.406-1.275,6.007-4.065,7.07-6.663c4.586-0.153,11.192-5.337,13.446-9.842
	c5.223-0.288,13.566-7.318,13.932-12.09c0.666-0.396,1.345-0.895,2.006-1.47c2.657-2.316,5.004-5.904,4.907-9.342
	c-0.118-4.202-1.865-7.041-4.415-9.204c-12.797-10.854-23.232-13.247-32.312-28.365c-5.733-9.546-11.388-18.829-16.693-28.392
	c-0.396,9.257-3.826,18.995-6.677,26.395C1012.974,2387.196,1006.697,2399.243,1001.294,2411.602z"/>
<path style="fill:#D98364;" d="M1015.752,2334.954c-10.006-5.717-21.081-7.791-32.868-8.857c-15.178-1.372-33.128-3.066-47.73,2.088
	c-9.8,3.459-21.999,10.596-25.174,21.432l0.552,0.487c20.904,17.995,34.063,38.633,46.118,61.337
	c0.812-0.316,1.575-0.558,1.975-0.701c8.927-3.198,18.382-3.367,27.703-2.452c1.603,0.158,3.176,0.35,4.723,0.594
	c3.414-9.65,7.353-19.17,10.424-28.414c4.49-13.513,12.289-27.075,14.073-41.376
	C1015.674,2338.079,1015.774,2336.579,1015.752,2334.954z"/>
<path style="fill:#D98364;" d="M945.07,2276.291c-5.64-0.008-26.642,3.535-40.555,2.595l-0.175,0.443
	c-4.201,10.348-7.998,20.5-9.388,30.318c-1.6,11.308-0.005,22.172,7.845,32.38c0.817-1.165,1.689-2.268,2.47-3.295
	c2.956-3.887,6.695-7.514,10.71-10.303c8.617-5.985,18.331-9.866,28.33-12.852c9.437-2.817,19.761-3.524,29.567-3.642
	c7.852-0.096,16.087,0.879,23.51,3.459c5.093,1.77,10.337,3.914,14.546,7.286c-4.708-12.243-7.229-25.3-8.387-38.37
	c-3.155-0.192-6.147-1.357-9.374-2.467C977.901,2276.25,962.407,2276.313,945.07,2276.291z"/>
<path style="fill:#D98364;" d="M992.872,2462.731c3.622,2.723,7.183,5.003,10.317,6.564c9.121,4.546,25.201-1.814,28.001-11.476
	c0.362-2.164,0.543-4.32,0.09-6.833c-1.471-8.171-6.149-14.961-12.604-20.032c-6.503-5.108-13.25-9.07-20.551-11.758
	c-2.463,6.229-4.595,12.575-6.103,19.136C990.513,2444.892,990.306,2455.087,992.872,2462.731z"/>
<path style="fill:#D98364;" d="M988.509,2416.471c-2.487-0.503-5.044-0.873-7.68-1.103c-7.12-0.62-14.087,0.764-20.962,2.222
	c3.479,6.737,6.913,13.644,10.469,20.709c2.779,5.521,8.092,11.763,14.079,17.337
	C981.952,2442.647,984.432,2429.475,988.509,2416.471z"/>
<path style="fill:#BD9E50;" d="M783.307,1623.554c-34.73-6.612-68.458-17.766-103.121-24.845
	c-14.16-2.872-27.584-6.946-41.943-9.217c-2.555-0.396-17.458-3.188-32.928-6.277c-1.362,53.06-7.345,103.835,0.016,157.223
	c8.828,64.015,8.028,128.32,13.71,192.483c7.193,81.213,25.149,160.755,26.781,242.502c0.24,12.018,2.139,24.219,1.187,36.259
	c-0.557,7.034-4.344,15.683-3.388,22.681c1.291,9.437,9.941,15.353,11.57,24.759c1.407,8.116-2.051,15.099-1.095,23.09
	c0.483,4.035,3.616,7.755,3.747,12.191c0.076,2.596-2.533,7.631-1.926,9.911c2.328,8.735,5.053,6.847,13.844,6.446
	c1.836-0.084,3.671-0.196,5.505-0.328c23.522-1.686,46.875-6.981,70.686-7.958c2.705-0.111,6.51,0.085,10.41-0.049
	c5.71-0.197,11.623-1.102,14.582-4.72c5.036-6.157-0.863-10.697,0.256-16.482c2.067-10.687,10.258-18.383,11.533-30.204
	c7.269-67.42,16.805-135.763,27.578-203.159c8.587-53.727,12.865-107.652,17.832-161.788
	c7.867-85.741,12.062-172.113,19.093-258.123C826.376,1628.794,805.214,1627.697,783.307,1623.554z"/>
<path style="fill:#BD9E50;" d="M966.041,1609.662c-39.521,7.853-77.188,16.25-115.824,18.153
	c6.102,68.245,12.997,136.441,19.202,204.697c7.147,78.611,13.374,157.304,16.407,236.251c1.153,30.005,3.759,59.591,6.52,89.531
	c1.484,16.094-1.303,32.098,1.173,47.92c2.255,14.412,2.427,20.868-1.783,35.191c-2.281,7.757,1.477,12.783,2.03,20.18
	c0.247,3.311-2.876,10.243-1.594,12.755c1.454,2.846,6.209,4.131,12.343,4.546c13.912,0.94,34.915-2.603,40.555-2.595
	c17.337,0.022,32.831-0.041,49.1,5.552c3.228,1.11,6.219,2.275,9.374,2.467c1.841,0.112,3.737-0.106,5.768-0.863
	c8.212-3.058,3.448-4.113,6.162-11.363c2.822-7.541,11.021-9.795,13.313-18.077c3.235-11.69,1.413-23.733,5.466-35.657
	c5.658-16.649,2.339-32.782,4.048-50.007c8.161-82.257,19.891-166.275,23.559-249.241c2.159-48.844,9.289-97.259,13.392-145.95
	c5.318-63.105,14.245-126.586,21.844-190.226c-13.947,1.388-25.353,2.486-27.866,2.894
	C1034.165,1591.563,1000.771,1602.783,966.041,1609.662z"/>
<path style="fill:#D98364;" d="M1158.095,1135.535c1.516,11.039,3.728,21.993,6.599,32.773
	c6.865,25.756,17.282,48.943,21.282,75.465c4.396,29.213,5.552,53.782-10.393,79.944c-5.981,9.812-10.216,19.129-13.273,30.203
	c-5.348,19.28-23.045,35.614-24.665,55.486c-1.508,18.701,17.265,4.351,22.981-3.328c7.208-9.7,12.613-20.392,20.109-29.663
	c9.813-12.164,15.997-8.911,21.59,5.034c4.188,10.504,6.652,21.638,8.936,32.623c0.64,3.111,1.084,6.184,1.408,9.242
	c-8.46,17.896-20.957,33.322-39.347,44.186c-4.116,2.42-22.125,10.437-12.392,16.816c1.872,1.239,4.7,0.819,7.72-0.323
	c-3.487,6.108-3.499,12.359,5.568,11.571c4.509-0.406,10.241-3.675,15.318-7.89c-2.329,8.626-0.365,15.808,11.944,7.243
	c3.544-2.48,7.016-5.95,10.136-9.873c0.06,1.781,0.076,3.546,0.211,5.32c1.549,20.46,13.505-11.728,14.621-18.482
	c1.996-12.074,4.944-23.54,7.676-35.358c0.788-3.396,1.84-7.108,2.917-10.97c13.813-14.486,14.997-34.486,20.145-52.962
	c5.844-20.97,7.588-42.684,4.692-63.864c-3.068-22.353,1.288-47.027,3.421-69.371c2.229-23.247-0.136-45.307-1.137-68.643
	c-0.693-16.399-2.487-32.047-5.133-47.664C1228.341,1132.308,1183.533,1140.968,1158.095,1135.535z"/>
<path style="fill:#D98364;" d="M473.02,1123.049c-2.645,15.617-4.439,31.265-5.133,47.664c-1,23.336-3.364,45.396-1.137,68.643
	c2.133,22.345,6.489,47.019,3.421,69.371c-2.896,21.18-1.152,42.894,4.691,63.864c5.149,18.476,6.333,38.477,20.145,52.962
	c1.077,3.862,2.128,7.574,2.917,10.97c2.732,11.818,5.68,23.284,7.676,35.358c1.116,6.754,13.072,38.942,14.621,18.482
	c0.136-1.773,0.151-3.539,0.211-5.32c3.12,3.923,6.592,7.393,10.136,9.873c12.31,8.565,14.273,1.383,11.945-7.243
	c5.076,4.215,10.808,7.484,15.317,7.89c9.068,0.788,9.055-5.463,5.568-11.571c3.02,1.142,5.848,1.562,7.72,0.323
	c9.732-6.379-8.276-14.396-12.392-16.816c-18.389-10.864-30.886-26.289-39.347-44.186c0.324-3.058,0.768-6.131,1.408-9.242
	c2.284-10.984,4.748-22.119,8.936-32.623c5.592-13.945,11.777-17.199,21.59-5.034c7.496,9.271,12.901,19.964,20.11,29.663
	c5.716,7.679,24.489,22.029,22.98,3.328c-1.619-19.872-19.317-36.206-24.665-55.486c-3.056-11.074-7.292-20.391-13.273-30.203
	c-15.945-26.162-14.789-50.731-10.392-79.944c4-26.522,14.417-49.708,21.282-75.465c2.871-10.78,5.083-21.734,6.599-32.773
	C548.518,1140.967,503.711,1132.308,473.02,1123.049z"/>
<path style="fill:#D98364;" d="M851.498,473.856c-0.961,0.32-1.033,3.094-0.548,7.335c1.135,9.785,5.278,27.407,8.516,40.918
	l0.083,0.343c0.196,0.818,0.388,1.619,0.577,2.403l0.16,0.666c0.218,0.905,0.428,1.786,0.631,2.634
	c1.402,5.878,2.47,10.285,2.671,11.822c0.134,1.069,0.268,4.274,0.468,9.35c0.2-5.076,0.334-8.281,0.467-9.35
	c0.2-1.47,1.202-5.944,2.671-11.822l0.216-0.924l0.26-1.112c0.276-1.172,0.564-2.391,0.86-3.647
	c0.131-0.554,0.263-1.115,0.397-1.683c0.156-0.659,0.314-1.326,0.473-2.001l0.084-0.359c0.191-0.81,0.385-1.631,0.58-2.459
	l0.059-0.252l0.157-0.667l0.071-0.305l0.199-0.852l0.084-0.361l0.093-0.398l0.102-0.438l0.297-1.273l0.339-1.463
	c0.146-0.632,0.292-1.266,0.437-1.898l0.037-0.164c0.213-0.928,0.425-1.856,0.634-2.783l0.015-0.067l0.144-0.64l0.083-0.37
	l0.144-0.643l0.128-0.573l0.062-0.276l0.213-0.958l0.032-0.145l0.227-1.035l0.019-0.087l0.114-0.522l0.318-1.471l0.015-0.065
	c1.95-9.178,3.41-17.384,3.363-21.549l-0.005-0.269l-0.005-0.142l-0.015-0.296l-0.005-0.083l-0.031-0.338l-0.005-0.041l-0.105-0.639
	l-0.001-0.004l-0.073-0.267l-0.004-0.012l-0.086-0.229l-0.003-0.007l-0.209-0.335l-0.019-0.02l-0.116-0.1l-0.024-0.015l-0.134-0.064
	c28.676,8.813,73.098-22.346,82.719-64.103c-2.122-7.486-4.475-15.102-7.015-22.835c-27.12,29.609-74.901,50.448-86.271,50.448
	c-11.373,0-59.181-20.852-86.297-50.477c-3.35,10.198-6.377,20.192-8.972,29.953C783.455,454.959,824.471,482.163,851.498,473.856z"
	/>
<path style="fill:#D16F55;" d="M865.987,288.533c-10.446,0.04-18.883,4.598-18.844,15.044c0.011,3.001,0.866,5.118,2.286,6.51
	c1.516,1.487,3.675,2.148,6.144,2.168c0.997-0.004,2.078-0.093,3.158-0.297c2.11,0.846,4.645,1.349,7.349,1.339
	c2.733-0.01,5.236-0.532,7.339-1.394c1.083,0.196,2.164,0.277,3.161,0.273c2.405-0.037,4.512-0.68,6.01-2.098
	c1.481-1.401,2.366-3.56,2.354-6.644C884.905,292.987,876.434,288.494,865.987,288.533z"/>
<path style="fill:#D16F55;" d="M988.863,240.909c8.439-2.748,8.216,14.628,8.153,18.913c0.846-4.005,1.824-8.009,1.127-12.325
	c-0.531-4.303-3.039-9.214-7.608-9.991c-3.991-0.715-7.145,1.691-9.778,3.956c-2.023,1.762-3.762,4.01-5.21,6.475
	c0.002,3.265,0.002,6.911,0.001,10.801c1.45-4.449,3.41-8.653,6.221-12.153C983.704,244.164,985.832,241.887,988.863,240.909z"/>
<path style="fill:#D16F55;" d="M980.543,277.218c0.88,4.352-0.138,8.48-3.456,10.727c4.611-1.693,6.225-6.917,5.326-12.034
	c-0.578-3.69-3.03-8.933-6.867-9.666c0,1.091-0.001,2.193-0.002,3.304C978.043,269.835,980.085,275.025,980.543,277.218z"/>
<path style="fill:#D16F55;" d="M751.245,242.68c-2.66-2.237-5.816-4.61-9.781-3.853c-4.556,0.826-7.03,5.763-7.522,10.071
	c-0.628,4.323,0.338,8.317,1.292,12.312c-0.161-4.283-0.536-21.656,7.938-18.998c3.04,0.947,5.186,3.201,7.1,5.601
	c2.799,3.389,4.773,7.458,6.266,11.778c-0.001-3.747-0.001-7.28,0.001-10.482C755.065,246.656,753.293,244.423,751.245,242.68z"/>
<path style="fill:#D16F55;" d="M749.937,277.144c-0.816,5.127,0.874,10.333,5.503,11.977c-3.404-2.211-4.45-6.328-3.56-10.689
	c0.396-2.125,2.274-7.064,4.665-7.674c-0.001-1.113-0.002-2.217-0.002-3.311C752.817,268.36,750.551,273.513,749.937,277.144z"/>
<path style="fill:#2A1714;" d="M897.742,217.71c-0.648,1.738-0.96,3.615-1.051,5.553c2.461-3.051,35.973-7.896,58.422,5.541
	c-9.167-21.125-29.747-25.873-41.335-22.758c1.386-1.619,2.974-3.405,4.041-5.27c-2.904-0.751-11.24,1.14-12.527,4.451
	c0.383-0.985,0.888-2.041,1.479-3.069c0.925-1.607,2.059-3.141,3.259-4.213c-4.038,1.435-7.148,2.957-10.23,6.197
	c-4.982,5.236-6.556,10.263-7.303,17.634C893.753,219.896,896.135,219.208,897.742,217.71z"/>
<path style="fill:#2A1714;" d="M835.334,238.554c-0.113-1.936-0.445-3.811-1.112-5.543c1.623,1.482,4.012,2.146,5.288,4.011
	c-0.826-7.361-2.455-12.372-7.495-17.557c-3.117-3.208-6.244-4.698-10.297-6.092c1.212,1.06,2.362,2.582,3.305,4.179
	c0.602,1.021,1.119,2.073,1.513,3.053c-1.323-3.298-9.68-5.103-12.576-4.322c1.088,1.853,2.695,3.623,4.099,5.228
	c-11.621-2.995-32.148,1.964-41.083,23.182C799.276,231.028,832.839,235.528,835.334,238.554z"/>
<path style="fill:#D16F55;" d="M933.429,271.795c-13.076-0.403-23.955,6.605-24.301,15.652c-0.345,9.047,9.975,16.708,23.051,17.11
	c13.076,0.403,23.955-6.605,24.301-15.651C956.825,279.858,946.505,272.198,933.429,271.795z"/>
<path style="fill:#D16F55;" d="M822.947,287.904c-0.441-9.043-11.395-15.935-24.466-15.393
	c-13.071,0.541-23.308,8.311-22.867,17.353c0.441,9.043,11.394,15.935,24.465,15.393
	C813.15,304.716,823.388,296.947,822.947,287.904z"/>
<path style="fill:#D16F55;" d="M904.195,339.119l-8.315-6.57c1.003,1.549,2.301,2.81,3.573,3.798
	c-4.646,3.155-10.033,5.267-15.579,6.694c-5.756,1.418-11.742,2.048-17.744,2.053c-5.995-0.001-11.981-0.655-17.763-2.037
	c-5.541-1.43-11.085-3.309-15.766-6.414c1.259-1,2.541-2.272,3.524-3.829l-8.232,6.643c0,0,2.258-0.891,4.625-2.75
	c3.925,3.848,9.407,6.481,15.08,8.288c5.905,1.859,12.237,2.673,18.533,2.724c6.286-0.05,12.633-0.837,18.536-2.74
	c5.708-1.814,11.017-4.693,14.871-8.569C901.926,338.249,904.195,339.119,904.195,339.119z"/>
<path style="fill:#D16F55;" d="M850.472,353.058c1.98,2.412,4.526,4.134,7.21,5.256c2.69,1.146,5.55,1.651,8.401,1.672
	c2.85-0.043,5.706-0.571,8.386-1.745c2.673-1.148,5.202-2.904,7.148-5.348c-5.067,2.753-10.269,3.969-15.548,4
	C860.788,356.915,855.571,355.742,850.472,353.058z"/>
<path style="fill:#2A1714;" d="M852.915,309.476c0,0,0.939-0.231,1.509-0.006c0,0-0.366,1.311,1.149,2.786
	c0.997-0.004,2.078-0.093,3.158-0.297C858.732,311.958,855.895,306.931,852.915,309.476z"/>
<path style="fill:#2A1714;" d="M877.708,309.382c0.568-0.23,1.509-0.006,1.509-0.006c-2.998-2.522-5.797,2.527-5.797,2.527
	c1.083,0.196,2.164,0.277,3.161,0.273C878.084,310.691,877.708,309.382,877.708,309.382z"/>
<path style="fill:#EFAF8F;" d="M865.994,290.349c-5.688,0.021-10.753,1.555-14.141,4.817c3.412,3.237,8.488,4.733,14.177,4.711
	c5.688-0.021,10.752-1.556,14.14-4.818C876.759,291.823,871.683,290.328,865.994,290.349z"/>
<path style="fill:#2A1714;" d="M814.915,243.628c-5.684,0-9.216,4.803-9.216,12.532c0,7.729,3.532,12.533,9.216,12.533
	c5.687,0,9.219-4.804,9.219-12.533C824.134,248.431,820.602,243.628,814.915,243.628z"/>
<path style="fill:#2A1714;" d="M926.389,256.16c0-7.729-3.532-12.532-9.219-12.532c-5.684,0-9.216,4.803-9.216,12.532
	c0,7.729,3.532,12.533,9.216,12.533C922.857,268.693,926.389,263.889,926.389,256.16z"/>
<path style="fill:#466551;" d="M813.655,519.865c2.03,15.992,5.857,31.765,8.055,47.762c2.739,20.304,4.075,40.808,4.675,61.312
	c1.137,40.207-0.667,223.546-0.533,263.752c0,9.684-1.804,24.178,2.003,33.261c3.74,8.883,16.698,9.351,24.845,10.953
	c12.557,2.472,25.246,4.542,38.07,4.876c12.289,0.334,20.504-5.277,21.439-17.966c3.54-50.693,5.009-244.651,3.005-295.343
	c-0.868-20.972-1.87-41.943-2.404-62.915c-0.422-14.808,0.818-30.113,0.41-45.065c62.901-20.521,92.894-75.021,92.894-75.021
	c-6.012-3.272-36.601-40.741-45.216-45.416c-0.307,3.285-0.837,6.522-1.569,9.698c-9.621,41.757-54.042,72.917-82.719,64.103
	l0.134,0.064l0.024,0.015l0.116,0.1l0.019,0.02l0.209,0.335l0.003,0.007l0.086,0.229l0.004,0.012l0.073,0.267l0.001,0.004
	l0.105,0.639l0.005,0.041l0.031,0.338l0.005,0.083l0.015,0.296l0.005,0.142l0.005,0.269c0.047,4.165-1.413,12.371-3.363,21.549
	l-0.002,0.006l-0.013,0.059l-0.318,1.471l-0.114,0.522l-0.019,0.087l-0.227,1.035l-0.032,0.145l-0.213,0.958l-0.062,0.276
	l-0.128,0.573l-0.144,0.643l-0.083,0.37l-0.144,0.64l-0.015,0.067c-0.209,0.926-0.42,1.854-0.634,2.783l-0.037,0.164
	c-0.145,0.633-0.291,1.267-0.437,1.898l-0.339,1.463l-0.297,1.273l-0.102,0.438l-0.093,0.398l-0.084,0.361l-0.199,0.852
	l-0.071,0.305l-0.157,0.667l-0.059,0.252c-0.195,0.829-0.389,1.649-0.58,2.459l-0.084,0.359c-0.16,0.675-0.317,1.342-0.473,2.001
	c-0.134,0.567-0.266,1.129-0.397,1.683c-0.297,1.256-0.585,2.474-0.86,3.647l-0.26,1.112l-0.216,0.924
	c-1.469,5.878-2.472,10.352-2.671,11.822c-0.134,1.069-0.267,4.274-0.467,9.35c-0.201-5.076-0.334-8.281-0.468-9.35
	c-0.2-1.537-1.268-5.944-2.671-11.822c-0.202-0.848-0.413-1.729-0.631-2.634l-0.16-0.666c-0.189-0.784-0.381-1.586-0.577-2.403
	l-0.059-0.244l-0.024-0.1c-3.237-13.51-7.381-31.133-8.516-40.918c-0.492-4.252-0.418-7.026,0.548-7.335
	c-27.027,8.307-68.043-18.897-80.723-57.014c-1.796-5.4-3.025-11.019-3.563-16.787c-7.881,4.274-34.063,35.932-43.146,43.813
	C724.066,443.868,752.271,498.592,813.655,519.865z"/>
<path style="fill:#2A1714;" d="M625.191,907.126l-0.17-0.005c-1.686-0.09-2.974-1.531-2.882-3.216
	c1.573-28.788-5.048-57.824-11.448-85.905c-4.06-17.821-8.261-36.253-10.317-54.422c-0.191-1.677,1.015-3.19,2.692-3.377
	c1.694-0.224,3.186,1.014,3.38,2.691c2.017,17.832,6.179,36.092,10.204,53.752c6.495,28.49,13.208,57.952,11.588,87.597
	C628.151,905.867,626.802,907.126,625.191,907.126z"/>
<path style="fill:#2A1714;" d="M609.214,878.087c-1.223,0-2.381-0.74-2.849-1.951c-3.243-8.378-5.033-17.385-6.764-26.097
	c-1.65-8.306-3.356-16.896-6.31-24.752c-0.597-1.578,0.203-3.339,1.784-3.933c1.564-0.602,3.342,0.2,3.933,1.784
	c3.133,8.324,4.887,17.161,6.588,25.71c1.757,8.843,3.416,17.2,6.468,25.079c0.609,1.576-0.173,3.345-1.745,3.953L609.214,878.087z"
	/>
<path style="fill:#2A1714;" d="M1107.964,891.88l-0.555-0.051c-1.659-0.304-2.757-1.897-2.453-3.556
	c3.661-19.954,6.561-40.511,9.366-60.39c3.198-22.675,6.507-46.117,10.967-68.869c0.325-1.653,1.894-2.733,3.586-2.411
	c1.656,0.325,2.735,1.93,2.411,3.586c-4.428,22.592-7.724,45.952-10.914,68.547c-2.814,19.942-5.722,40.561-9.407,60.641
	C1110.697,890.851,1109.411,891.88,1107.964,891.88z"/>
<path style="fill:#2A1714;" d="M1119.579,906.401l-0.114-0.003c-1.685-0.06-3.004-1.477-2.942-3.163
	c0.749-20.914,5.538-41.328,10.171-61.067l0.796-3.404c0.382-1.641,2.032-2.671,3.67-2.28c1.644,0.385,2.664,2.029,2.28,3.67
	l-0.8,3.407c-4.562,19.456-9.281,39.574-10.013,59.895C1122.571,905.103,1121.214,906.401,1119.579,906.401z"/>
<path style="fill:#2A1714;" d="M1162.034,1096.769c-3.392,0-6.719-0.361-10.269-0.928c-1.665-0.265-2.802-1.829-2.536-3.497
	c0.266-1.661,1.814-2.819,3.497-2.536c9.025,1.435,14.921,1.083,22.549-1.349c1.597-0.522,3.327,0.379,3.84,1.984
	c0.51,1.608-0.376,3.326-1.985,3.84C1171.486,1096.083,1166.701,1096.769,1162.034,1096.769z"/>
<path style="fill:#2A1714;" d="M1167.491,1123.465c-1.214,0-2.363-0.728-2.84-1.927c-0.621-1.567,0.143-3.345,1.712-3.968
	c18.077-7.185,34.075-15.339,47.34-22.365c2.605-1.382,5.472-2.816,8.479-4.323c14.235-7.134,31.954-16.013,39.255-27.965
	c0.877-1.438,2.76-1.897,4.201-1.014c1.438,0.88,1.895,2.76,1.014,4.201c-8.217,13.444-26.801,22.758-41.734,30.241
	c-2.962,1.486-5.788,2.9-8.356,4.261c-13.408,7.104-29.591,15.35-47.943,22.645L1167.491,1123.465z"/>
<path style="fill:#2A1714;" d="M1220.007,1120.602c-0.632,0-1.247-0.015-1.84-0.042c-1.686-0.081-2.987-1.509-2.909-3.195
	c0.078-1.686,1.477-3.058,3.195-2.909c8.492,0.364,21.156-2.48,27.643-7.99c1.292-1.092,3.213-0.931,4.308,0.352
	c1.093,1.286,0.934,3.213-0.352,4.308C1242.62,1117.436,1229.48,1120.602,1220.007,1120.602z"/>
<path style="fill:#2A1714;" d="M485.8,1078.456l-0.993-0.167c-4.324-1.489-8.22-3.664-11.986-5.771
	c-2.36-1.322-4.72-2.643-7.181-3.783c-1.53-0.707-2.199-2.524-1.488-4.055c0.707-1.531,2.524-2.208,4.055-1.488
	c2.601,1.202,5.102,2.596,7.599,3.992c3.694,2.068,7.181,4.019,10.989,5.328c1.596,0.549,2.443,2.289,1.894,3.882
	C488.253,1077.662,487.068,1078.456,485.8,1078.456z"/>
<path style="fill:#2A1714;" d="M502.997,1103.163c-13.867,0-27.666-0.841-40.913-2.966c-1.668-0.266-2.802-1.835-2.533-3.499
	c0.265-1.668,1.829-2.817,3.499-2.533c34.997,5.609,74.252,2.041,108.034-2.193c1.674-0.182,3.201,0.982,3.41,2.652
	c0.209,1.674-0.979,3.201-2.653,3.41C550.307,1100.731,526.559,1103.163,502.997,1103.163z"/>
<path style="fill:#2A1714;" d="M567.111,1122.741h-0.015l-4.624-0.012c-11.979-0.018-24.364-0.039-35.859-2.22
	c-1.659-0.313-2.748-1.912-2.432-3.571c0.31-1.656,1.898-2.739,3.572-2.432c10.934,2.076,23.03,2.095,34.729,2.112l4.645,0.012
	c1.686,0.009,3.05,1.381,3.041,3.07C570.157,1121.383,568.79,1122.741,567.111,1122.741z"/>
<path style="fill:#2A1714;" d="M793.609,1261.4c-1.387,0-2.643-0.951-2.971-2.36c-14.688-62.941-39.63-123.426-63.752-181.921
	c-23.435-56.825-47.665-115.586-62.559-176.68c-0.4-1.641,0.606-3.294,2.244-3.694c1.656-0.417,3.294,0.609,3.693,2.244
	c14.781,60.646,38.923,119.187,62.269,175.799c24.214,58.719,49.256,119.44,64.054,182.861c0.384,1.644-0.639,3.287-2.28,3.669
	L793.609,1261.4z"/>
<path style="fill:#2A1714;" d="M677.46,1409.5l-0.358-0.021c-1.677-0.197-2.876-1.713-2.679-3.389
	c1.489-12.728,3.168-25.566,4.857-38.476c9.276-70.868,18.868-144.15-1.844-212.929c-0.489-1.614,0.427-3.318,2.043-3.807
	c1.611-0.495,3.318,0.433,3.804,2.047c21.093,70.032,11.415,143.974,2.055,215.483c-1.686,12.883-3.362,25.691-4.848,38.392
	C680.309,1408.355,678.99,1409.5,677.46,1409.5z"/>
<path style="fill:#2A1714;" d="M1059.32,1312.219c-1.668,0-3.028-1.336-3.055-3.008c-1.196-78.24-12.91-153.548-39.162-251.814
	c-16.108-60.291-24.885-109.415-27.622-154.595c-0.101-1.685,1.182-3.133,2.864-3.234c1.674-0.015,3.133,1.182,3.234,2.865
	c2.712,44.762,11.424,93.501,27.425,153.39c26.39,98.773,38.166,174.525,39.371,253.294c0.027,1.689-1.322,3.076-3.007,3.103
	H1059.32z"/>
<path style="fill:#2A1714;" d="M1020.117,1489.358h-0.066c-1.688-0.039-3.025-1.435-2.989-3.121
	c1.325-60.837-14.118-114.085-30.468-170.461c-7.077-24.406-14.395-49.644-20.273-75.63c-0.373-1.647,0.662-3.282,2.306-3.655
	c1.65-0.376,3.279,0.662,3.655,2.306c5.835,25.807,13.127,50.956,20.181,75.278c16.484,56.837,32.052,110.522,30.71,172.294
	C1023.136,1488.033,1021.776,1489.358,1020.117,1489.358z"/>
<path style="fill:#2A1714;" d="M802.321,1557.6l-1.369-0.325c-1.507-0.758-2.115-2.596-1.358-4.103
	c22.997-45.729,33.968-96.052,34.523-158.37c0.015-1.68,1.381-3.028,3.055-3.028h0.027c1.689,0.015,3.044,1.397,3.028,3.082
	c-0.563,63.287-11.74,114.464-35.173,161.061C804.517,1556.986,803.44,1557.6,802.321,1557.6z"/>
<path style="fill:#2A1714;" d="M1011.408,776.45l-0.125-0.003c-1.686-0.068-2.999-1.488-2.93-3.174
	c2.572-63.994,7.533-132.12,26.252-196.74c0.468-1.621,2.16-2.548,3.786-2.086c1.62,0.472,2.554,2.166,2.085,3.787
	c-18.54,63.994-23.46,131.679-26.019,195.284C1014.391,775.161,1013.037,776.45,1011.408,776.45z"/>
<path style="fill:#2A1714;" d="M750.052,941.974c-1.509,0-2.822-1.116-3.025-2.653c-3.097-23.295-6.656-47.256-10.096-70.43
	c-11.812-79.574-24.029-161.857-21.876-242.225c0.048-1.688,1.611-2.974,3.136-2.974c1.688,0.048,3.019,1.45,2.974,3.136
	c-2.142,79.836,10.037,161.851,21.81,241.166c3.443,23.196,7.005,47.181,10.108,70.522c0.224,1.674-0.951,3.21-2.625,3.431
	L750.052,941.974z"/>
<path style="fill:#2A1714;" d="M629.544,1718.766c-1.671,0-3.034-1.343-3.055-3.019c-0.104-8.501-1.152-18.215-2.262-28.502
	c-2.3-21.329-4.905-45.505,0.952-63.931c0.516-1.608,2.231-2.506,3.837-1.987c1.608,0.51,2.497,2.229,1.987,3.837
	c-5.469,17.201-2.935,40.696-0.698,61.426c1.125,10.436,2.187,20.294,2.294,29.086c0.021,1.686-1.331,3.07-3.02,3.091H629.544z"/>
<path style="fill:#2A1714;" d="M696.331,2250.179c-0.566,0-1.143-0.158-1.656-0.49c-4.553-2.945-9.855-4.839-15.469-6.85
	c-8.157-2.918-16.591-5.935-22.833-12.48c-1.163-1.223-1.119-3.157,0.101-4.321c1.226-1.16,3.157-1.119,4.32,0.101
	c5.242,5.499,12.638,8.145,20.47,10.947c5.695,2.038,11.582,4.145,16.729,7.471c1.417,0.916,1.823,2.808,0.907,4.225
	C698.315,2249.686,697.333,2250.179,696.331,2250.179z"/>
<path style="fill:#2A1714;" d="M686.014,2278.096c-6.591,0-13.193-1.033-19.763-3.419c-1.584-0.576-2.405-2.327-1.826-3.914
	c0.575-1.584,2.327-2.393,3.914-1.826c27.007,9.81,56.055-6.247,81.683-20.416c8.715-4.816,16.947-9.365,24.931-12.901
	c1.546-0.689,3.345,0.012,4.031,1.555c0.683,1.545-0.012,3.347-1.554,4.031c-7.742,3.428-15.857,7.915-24.45,12.665
	C732.146,2265.383,709.148,2278.096,686.014,2278.096z"/>
<path style="fill:#2A1714;" d="M740.192,2288.296c-5.94,0-11.881-1.185-17.448-3.505c-1.557-0.648-2.294-2.438-1.644-3.996
	c0.654-1.554,2.441-2.282,3.995-1.644c6.42,2.673,13.393,3.601,20.198,2.694c1.656-0.214,3.207,0.949,3.434,2.623
	c0.224,1.671-0.948,3.21-2.622,3.434C744.145,2288.165,742.167,2288.296,740.192,2288.296z"/>
<path style="fill:#2A1714;" d="M915.254,2257.303c-3.05,0-6.173-0.367-9.393-1.485c-1.593-0.552-2.437-2.294-1.883-3.888
	c0.552-1.593,2.291-2.443,3.888-1.882c5.036,1.749,9.848,1.166,15.413,0.495c2.163-0.263,4.368-0.525,6.639-0.659
	c1.691-0.054,3.13,1.187,3.228,2.87c0.098,1.683-1.185,3.13-2.871,3.228c-2.142,0.128-4.222,0.379-6.265,0.627
	C921.146,2256.954,918.234,2257.303,915.254,2257.303z"/>
<path style="fill:#2A1714;" d="M1002.911,2260.475c-10.189,0.003-19.292-5.078-28.117-10.007c-4.982-2.781-9.688-5.406-14.503-7.125
	c-2.489-0.887-5.057-1.853-7.686-2.844c-13.05-4.908-27.795-10.445-41.095-9.21c-1.692,0.197-3.172-1.074-3.33-2.751
	c-0.161-1.68,1.071-3.171,2.751-3.33c14.646-1.429,30.158,4.428,43.825,9.574c2.596,0.975,5.131,1.93,7.587,2.807
	c5.296,1.889,10.445,4.762,15.428,7.542c9.267,5.177,18.038,10.055,27.526,9.115c1.688-0.116,3.177,1.06,3.342,2.739
	c0.167,1.68-1.06,3.174-2.739,3.341C1004.892,2260.43,1003.895,2260.475,1002.911,2260.475z"/>
<path style="fill:#2A1714;" d="M1012.855,2242.92l-1.277-0.281c-3.64-1.677-7.277-3.404-10.917-5.131
	c-7.778-3.691-15.819-7.507-23.812-10.788c-1.561-0.642-2.306-2.426-1.664-3.987c0.638-1.563,2.437-2.306,3.986-1.665
	c8.145,3.345,16.26,7.194,24.11,10.92c3.622,1.718,7.238,3.434,10.857,5.102c1.53,0.707,2.202,2.521,1.495,4.055
	C1015.116,2242.26,1014.012,2242.92,1012.855,2242.92z"/>
<path style="fill:#2A1714;" d="M1056.414,1673.756c-1.593,0-2.939-1.239-3.046-2.852c-1.063-15.914-1.513-32.548-1.459-53.934
	c0.003-1.683,1.372-3.046,3.055-3.046c1.703-0.301,3.058,1.372,3.055,3.064c-0.054,21.236,0.393,37.738,1.447,53.51
	c0.111,1.683-1.16,3.139-2.846,3.252L1056.414,1673.756z"/>
<path style="fill:#2A1714;" d="M893.799,1683.918l-1.152-0.227c-1.563-0.635-2.315-2.42-1.677-3.98
	c2.993-7.348,3.828-14.62,4.795-23.036c0.254-2.184,0.51-4.413,0.812-6.701c0.221-1.671,1.76-2.846,3.428-2.629
	c1.674,0.221,2.85,1.754,2.629,3.428c-0.298,2.252-0.549,4.448-0.797,6.599c-0.975,8.495-1.897,16.52-5.209,24.641
	C896.144,1683.202,895.005,1683.918,893.799,1683.918z"/>
<path style="fill:#2A1714;" d="M802.327,1696.985l-0.31-0.015c-1.68-0.17-2.903-1.671-2.733-3.348
	c1.077-10.615,2.043-21.242,2.9-31.879c0.137-1.683,1.637-2.921,3.29-2.802c1.683,0.137,2.936,1.611,2.802,3.29
	c-0.862,10.678-1.832,21.348-2.912,32.005C805.203,1695.813,803.875,1696.985,802.327,1696.985z"/>
</svg>
